<?xml version="1.0" encoding="UTF-8"?>
<svg width="512px" height="509px" viewBox="0 0 512 509" version="1.1" xmlns="http://www.w3.org/2000/svg" xmlns:xlink="http://www.w3.org/1999/xlink">
    <title>logo</title>
    <g id="Page-1" stroke="none" stroke-width="1" fill="none" fill-rule="evenodd">
        <g id="logo" transform="translate(0.589561, 0.200000)" fill="#7C3AED" fill-rule="nonzero">
            <g id="Group" transform="translate(255.386716, 254.037500) scale(-1, 1) rotate(-180.000000) translate(-255.386716, -254.037500) translate(0.000000, 0.000000)">
                <path d="M231.210439,507.775 C231.010439,507.575 228.410439,507.175 225.410439,506.875 C205.310439,504.875 173.710439,496.775 156.610439,489.175 C151.210439,486.775 130.810439,476.675 127.910439,474.975 C99.2104393,457.775 74.6104393,437.175 56.8104393,415.275 C49.3104393,406.075 34.4104393,384.375 34.4104393,382.675 C34.4104393,381.975 34.0104393,381.275 33.5104393,381.075 C32.2104393,380.575 20.1104393,356.075 16.6104393,346.775 C10.9104393,331.575 9.41043926,327.275 10.0104393,327.275 C10.4104393,327.275 10.2104393,326.675 9.71043926,326.075 C8.91043926,325.075 6.91043926,318.375 5.91043926,313.275 C5.81043926,312.975 5.51043926,311.475 5.11043926,309.775 C4.71043926,308.175 4.21043926,305.875 4.01043926,304.775 C3.71043926,303.675 3.11043926,300.775 2.61043926,298.275 C0.510439259,288.875 -0.0895607412,279.975 0.0104392588,255.775 C0.0104392588,230.875 0.410439259,223.275 2.41043926,211.775 C3.81043926,203.375 6.91043926,189.775 8.81043926,183.275 C9.71043926,180.275 10.6104393,176.875 10.9104393,175.775 C11.1104393,174.675 12.0104393,172.175 12.8104393,170.275 C13.6104393,168.375 15.9104393,162.475 17.9104393,157.275 C21.4104393,148.175 32.8104393,125.575 36.4104393,120.275 C37.4104393,118.875 39.9104393,115.075 42.0104393,111.775 C45.3104393,106.575 53.8104393,95.075 56.9104393,91.675 C57.4104393,91.075 59.8104393,88.375 62.0104393,85.675 C70.7104393,75.375 86.3104393,60.475 95.9104393,53.375 C99.2104393,50.875 102.110439,48.675 102.410439,48.275 C103.210439,47.275 120.510439,35.875 125.810439,32.775 C131.910439,29.275 150.010439,20.275 150.910439,20.275 C151.310439,20.275 153.210439,19.575 155.210439,18.675 C161.510439,15.975 162.710439,15.475 168.910439,13.375 C184.410439,8.175 197.410439,4.775 209.410439,2.875 C211.310439,2.575 213.910439,2.075 215.210439,1.875 C227.110439,-0.625 282.310439,-0.625 293.410439,1.875 C294.810439,2.175 297.510439,2.575 299.410439,2.875 C301.310439,3.075 303.610439,3.575 304.410439,3.775 C305.210439,3.975 307.510439,4.475 309.410439,4.775 C311.310439,5.075 315.410439,6.075 318.410439,6.875 C326.010439,8.875 327.110439,9.175 329.410439,9.675 C330.510439,9.975 331.810439,10.375 332.210439,10.675 C332.710439,10.975 334.110439,11.375 335.510439,11.675 C345.710439,13.675 384.310439,31.375 390.510439,36.875 C391.310439,37.675 392.410439,38.275 392.710439,38.275 C393.110439,38.275 395.810439,39.875 398.710439,41.975 C429.510439,63.475 453.810439,88.675 472.510439,118.475 C484.610439,137.675 500.110439,173.475 502.810439,188.275 C503.010439,189.675 503.810439,193.075 504.410439,195.775 C505.010439,198.575 505.810439,201.675 506.010439,202.775 C507.210439,207.975 508.910439,219.175 510.110439,230.275 C511.010439,238.575 511.010439,262.675 510.010439,272.275 C508.810439,284.475 508.610439,286.275 507.910439,291.275 C506.810439,299.675 506.610439,301.075 506.010439,302.975 C505.710439,303.975 505.210439,306.375 504.910439,308.275 C504.410439,310.975 501.710439,320.975 498.010439,333.775 C497.810439,334.375 497.410439,335.475 497.110439,336.275 C496.810439,337.075 495.810439,339.975 495.010439,342.575 C494.110439,345.175 492.410439,349.275 491.210439,351.575 C490.110439,353.875 489.210439,355.875 489.310439,356.075 C489.710439,356.575 480.110439,375.675 476.410439,381.875 C474.210439,385.375 472.410439,388.575 472.410439,388.875 C472.410439,389.175 470.910439,391.375 469.210439,393.775 C467.410439,396.175 464.810439,399.775 463.410439,401.775 C462.010439,403.775 459.810439,406.875 458.410439,408.675 C457.010439,410.475 454.810439,413.475 453.410439,415.375 C452.010439,417.275 444.610439,425.075 436.910439,432.775 C422.410439,447.375 402.910439,462.975 387.910439,471.875 C375.310439,479.275 353.310439,489.775 341.610439,493.775 C335.710439,495.775 330.010439,497.875 328.910439,498.275 C327.110439,499.075 315.510439,501.775 309.410439,502.875 C308.010439,503.175 303.510439,503.975 299.410439,504.875 C285.510439,507.575 279.010439,507.975 255.210439,508.075 C242.210439,508.075 231.410439,507.875 231.210439,507.775 Z M350.710439,375.875 C352.710439,373.875 352.210439,363.775 350.010439,361.375 C348.410439,359.575 348.510439,359.475 351.110439,358.975 C355.710439,358.075 356.810439,357.775 358.110439,356.975 C358.810439,356.575 359.610439,357.375 360.310439,359.275 C361.210439,361.975 365.410439,366.375 369.110439,368.575 C371.010439,369.675 374.210439,368.475 374.610439,366.475 C375.110439,364.275 371.510439,358.675 368.710439,357.175 C367.410439,356.475 366.410439,355.575 366.410439,355.075 C366.410439,354.675 365.810439,354.275 365.010439,354.275 C364.010439,354.275 364.510439,353.175 366.510439,351.075 C368.110439,349.275 369.710439,346.975 370.010439,346.075 C370.710439,343.775 371.610439,343.775 373.110439,346.275 C374.210439,347.875 378.510439,349.675 384.610439,350.775 C387.910439,351.475 390.410439,347.375 388.610439,344.575 C387.810439,343.275 380.410439,339.875 380.410439,340.775 C380.410439,341.075 379.510439,340.875 378.410439,340.275 C377.110439,339.575 375.810439,339.575 374.710439,340.175 C373.110439,340.975 372.910439,340.575 373.310439,336.475 C373.510439,332.975 373.210439,331.575 371.810439,330.575 C370.310439,329.475 371.510439,329.275 380.010439,329.275 C390.410439,329.275 392.410439,328.575 392.410439,324.975 C392.410439,320.775 391.710439,320.675 348.510439,320.475 C305.610439,320.175 304.410439,320.275 304.410439,324.375 C304.410439,328.375 306.910439,329.275 319.210439,329.475 C325.610439,329.475 329.310439,329.775 327.410439,329.975 C325.510439,330.275 323.410439,330.875 322.810439,331.375 C319.910439,333.775 324.410439,347.375 329.510439,351.675 L331.810439,353.575 L329.410439,355.175 C325.210439,357.875 320.410439,363.375 320.410439,365.375 C320.410439,367.675 323.810439,369.575 326.410439,368.775 C329.110439,367.875 335.410439,360.575 335.410439,358.275 C335.410439,356.475 335.710439,356.375 337.610439,357.375 C339.610439,358.475 340.910439,358.775 345.310439,359.175 C346.410439,359.275 346.410439,359.675 345.010439,361.175 C343.110439,363.275 342.710439,370.375 344.310439,374.575 C345.510439,377.575 348.410439,378.175 350.710439,375.875 Z M316.910439,348.875 C321.310439,346.875 322.410439,345.975 322.410439,343.975 C322.410439,340.075 318.710439,338.775 313.310439,340.875 C306.010439,343.775 304.410439,346.775 308.610439,349.675 C311.310439,351.575 310.310439,351.775 316.910439,348.875 Z M263.310439,306.075 C263.510439,303.175 263.510439,300.075 263.510439,299.275 C263.310439,294.275 263.310439,263.475 263.410439,262.775 C263.610439,262.175 263.610439,261.575 263.510439,261.275 C263.310439,260.975 263.110439,251.375 263.010439,239.775 C262.810439,228.275 262.610439,218.575 262.510439,218.275 C262.310439,217.375 185.710439,217.675 184.810439,218.475 C184.410439,218.875 185.610439,220.975 187.510439,222.975 C189.410439,225.075 192.710439,228.975 194.910439,231.675 C197.110439,234.375 199.610439,237.275 200.410439,238.275 C201.210439,239.275 203.110439,241.575 204.610439,243.375 C206.010439,245.275 208.710439,248.375 210.410439,250.275 C212.210439,252.175 214.810439,255.375 216.210439,257.275 C217.710439,259.175 219.110439,260.975 219.510439,261.275 C219.810439,261.575 222.610439,264.975 225.810439,268.775 C229.010439,272.675 233.310439,277.775 235.410439,280.275 C240.810439,286.575 246.310439,293.175 250.510439,298.375 C252.610439,300.775 255.610439,304.375 257.310439,306.275 C259.010439,308.175 260.410439,310.075 260.410439,310.575 C260.410439,310.975 261.010439,311.275 261.810439,311.275 C262.710439,311.275 263.210439,309.675 263.310439,306.075 Z M272.310439,277.875 C274.010439,275.375 276.010439,272.875 276.610439,272.075 C277.310439,271.375 279.910439,268.075 282.310439,264.775 C284.810439,261.475 287.010439,258.575 287.310439,258.275 C287.610439,257.975 288.410439,257.075 288.910439,256.175 C289.510439,255.275 292.610439,250.975 295.810439,246.675 C300.810439,240.075 303.810439,236.175 311.210439,226.775 C315.110439,221.775 316.610439,219.175 316.010439,218.575 C315.010439,217.475 271.310439,217.375 269.310439,218.375 C268.110439,218.975 267.710439,221.275 267.610439,229.975 C267.610439,235.875 267.410439,249.575 267.310439,260.275 C267.110439,277.475 267.410439,282.275 268.910439,282.275 C269.110439,282.275 270.710439,280.275 272.310439,277.875 Z M344.110439,212.875 C344.810439,212.175 342.110439,205.275 336.110439,192.275 C334.010439,187.575 331.110439,181.275 329.710439,178.275 C326.310439,170.675 322.610439,162.675 319.810439,156.875 L317.410439,151.875 L311.510439,151.675 C306.610439,151.575 304.210439,150.775 298.010439,147.375 C288.310439,142.075 282.610439,141.675 274.410439,145.775 C267.810439,149.175 261.110439,150.975 256.410439,150.775 C250.610439,150.475 244.410439,149.175 244.410439,148.175 C244.410439,147.675 243.710439,147.275 242.910439,147.275 C242.110439,147.275 239.710439,146.375 237.510439,145.175 C235.310439,144.075 231.110439,142.975 228.210439,142.775 C223.610439,142.575 221.810439,143.075 214.010439,147.075 C205.910439,151.275 204.510439,151.675 198.410439,151.575 C193.810439,151.575 190.510439,150.875 187.610439,149.375 C183.110439,147.075 181.410439,146.775 181.410439,148.175 C181.410439,148.675 178.810439,154.675 175.510439,161.475 C172.310439,168.275 168.910439,175.575 167.910439,177.775 C166.910439,179.975 164.410439,185.375 162.310439,189.775 C154.310439,206.975 152.310439,211.575 152.910439,212.175 C153.310439,212.475 161.110439,212.975 170.210439,213.275 C193.810439,213.975 343.410439,213.675 344.110439,212.875 Z M378.910439,147.875 C380.010439,147.675 380.910439,147.375 380.910439,147.275 C380.910439,147.175 381.610439,146.975 382.510439,146.775 C385.110439,146.275 396.610439,140.475 399.010439,138.575 C402.210439,135.975 402.810439,132.975 400.610439,130.475 C398.410439,127.875 396.410439,128.275 386.510439,133.275 C379.610439,136.775 377.710439,137.175 369.710439,137.375 C365.610439,137.375 362.810439,136.575 356.210439,133.475 C349.210439,130.175 346.810439,129.575 340.910439,129.375 C333.210439,129.275 329.410439,130.275 322.010439,134.675 C315.010439,138.875 309.710439,138.675 300.310439,133.775 C294.110439,130.575 291.710439,129.875 285.310439,129.475 C278.010439,129.075 277.310439,129.175 268.810439,133.275 C256.210439,139.275 253.910439,139.175 239.410439,132.375 C233.710439,129.775 232.010439,129.375 225.410439,129.675 C219.410439,129.875 216.510439,130.575 210.910439,133.175 C198.810439,138.775 196.210439,138.875 185.510439,133.575 C178.410439,129.975 177.410439,129.775 168.910439,129.875 C160.610439,129.875 159.410439,130.175 152.510439,133.675 C145.310439,137.275 144.910439,137.375 136.610439,136.875 C129.610439,136.475 126.810439,135.775 120.710439,132.775 C112.110439,128.775 109.910439,128.475 108.410439,131.175 C106.710439,134.475 107.310439,137.175 110.210439,138.975 C111.710439,139.975 113.110439,141.075 113.410439,141.475 C113.710439,141.775 117.510439,143.375 121.910439,144.875 C127.810439,146.875 131.910439,147.675 137.410439,147.675 C147.010439,147.675 149.410439,147.175 157.410439,143.375 C167.910439,138.375 172.110439,138.875 187.210439,146.775 C189.910439,148.175 192.410439,148.475 199.710439,148.075 C205.410439,147.775 208.910439,147.175 209.210439,146.475 C209.410439,145.775 210.410439,145.275 211.510439,145.275 C212.510439,145.275 213.410439,144.875 213.410439,144.475 C213.410439,143.075 223.210439,140.075 227.810439,140.075 C230.710439,140.075 234.510439,141.075 238.010439,142.775 C246.010439,146.575 251.210439,147.875 256.910439,147.675 C263.710439,147.375 265.510439,146.875 272.410439,143.175 C280.810439,138.675 286.010439,138.975 296.810439,144.375 C304.610439,148.375 305.210439,148.475 312.910439,148.075 C319.610439,147.675 321.910439,147.075 327.410439,144.075 C336.010439,139.475 342.510439,139.075 349.210439,142.775 C360.410439,148.775 368.710439,150.275 378.910439,147.875 Z" id="Shape"></path>
                <path d="M335.210439,329.575 C335.810439,329.375 337.010439,329.375 337.710439,329.575 C338.310439,329.875 337.810439,330.075 336.410439,330.075 C335.010439,330.075 334.510439,329.875 335.210439,329.575 Z" id="Path"></path>
                <path d="M342.210439,329.575 C342.810439,329.375 344.010439,329.375 344.710439,329.575 C345.310439,329.875 344.810439,330.075 343.410439,330.075 C342.010439,330.075 341.510439,329.875 342.210439,329.575 Z" id="Path"></path>
                <path d="M347.210439,329.575 C347.810439,329.375 349.010439,329.375 349.710439,329.575 C350.310439,329.875 349.810439,330.075 348.410439,330.075 C347.010439,330.075 346.510439,329.875 347.210439,329.575 Z" id="Path"></path>
                <path d="M357.710439,329.575 C358.610439,329.375 360.210439,329.375 361.210439,329.575 C362.110439,329.875 361.310439,330.075 359.410439,330.075 C357.510439,330.075 356.710439,329.875 357.710439,329.575 Z" id="Path"></path>
                <path d="M364.710439,329.575 C365.610439,329.375 367.210439,329.375 368.210439,329.575 C369.110439,329.875 368.310439,330.075 366.410439,330.075 C364.510439,330.075 363.710439,329.875 364.710439,329.575 Z" id="Path"></path>
            </g>
        </g>
    </g>
</svg>