<?xml version="1.0" standalone="no"?>
<!DOCTYPE svg PUBLIC "-//W3C//DTD SVG 20010904//EN"
 "http://www.w3.org/TR/2001/REC-SVG-20010904/DTD/svg10.dtd">
<svg version="1.0" xmlns="http://www.w3.org/2000/svg"
 width="512.000000pt" height="512.000000pt" viewBox="0 0 512.000000 512.000000"
 preserveAspectRatio="xMidYMid meet">
<metadata>
Created by potrace 1.14, written by Peter Selinger 2001-2017
</metadata>
<g transform="translate(0.000000,512.000000) scale(0.100000,-0.100000)"
fill="#000000" stroke="none">
<path d="M2318 5095 c-2 -2 -28 -6 -58 -9 -201 -20 -517 -101 -688 -177 -54
-24 -258 -125 -287 -142 -287 -172 -533 -378 -711 -597 -75 -92 -224 -309
-224 -326 0 -7 -4 -14 -9 -16 -13 -5 -134 -250 -169 -343 -57 -152 -72 -195
-66 -195 4 0 2 -6 -3 -12 -8 -10 -28 -77 -38 -128 -1 -3 -4 -18 -8 -35 -4 -16
-9 -39 -11 -50 -3 -11 -9 -40 -14 -65 -21 -94 -27 -183 -26 -425 0 -249 4
-325 24 -440 14 -84 45 -220 64 -285 9 -30 18 -64 21 -75 2 -11 11 -36 19 -55
8 -19 31 -78 51 -130 35 -91 149 -317 185 -370 10 -14 35 -52 56 -85 33 -52
118 -167 149 -201 5 -6 29 -33 51 -60 87 -103 243 -252 339 -323 33 -25 62
-47 65 -51 8 -10 181 -124 234 -155 61 -35 242 -125 251 -125 4 0 23 -7 43
-16 63 -27 75 -32 137 -53 155 -52 285 -86 405 -105 19 -3 45 -8 58 -10 119
-25 671 -25 782 0 14 3 41 7 60 10 19 2 42 7 50 9 8 2 31 7 50 10 19 3 60 13
90 21 76 20 87 23 110 28 11 3 24 7 28 10 5 3 19 7 33 10 102 20 488 197 550
252 8 8 19 14 22 14 4 0 31 16 60 37 308 215 551 467 738 765 121 192 276 550
303 698 2 14 10 48 16 75 6 28 14 59 16 70 12 52 29 164 41 275 9 83 9 324 -1
420 -12 122 -14 140 -21 190 -11 84 -13 98 -19 117 -3 10 -8 34 -11 53 -5 27
-32 127 -69 255 -2 6 -6 17 -9 25 -3 8 -13 37 -21 63 -9 26 -26 67 -38 90 -11
23 -20 43 -19 45 4 5 -92 196 -129 258 -22 35 -40 67 -40 70 0 3 -15 25 -32
49 -18 24 -44 60 -58 80 -14 20 -36 51 -50 69 -14 18 -36 48 -50 67 -14 19
-88 97 -165 174 -145 146 -340 302 -490 391 -126 74 -346 179 -463 219 -59 20
-116 41 -127 45 -18 8 -134 35 -195 46 -14 3 -59 11 -100 20 -139 27 -204 31
-442 32 -130 0 -238 -2 -240 -3z m1195 -1319 c20 -20 15 -121 -7 -145 -16 -18
-15 -19 11 -24 46 -9 57 -12 70 -20 7 -4 15 4 22 23 9 27 51 71 88 93 19 11
51 -1 55 -21 5 -22 -31 -78 -59 -93 -13 -7 -23 -16 -23 -21 0 -4 -6 -8 -14 -8
-10 0 -5 -11 15 -32 16 -18 32 -41 35 -50 7 -23 16 -23 31 2 11 16 54 34 115
45 33 7 58 -34 40 -62 -8 -13 -82 -47 -82 -38 0 3 -9 1 -20 -5 -13 -7 -26 -7
-37 -1 -16 8 -18 4 -14 -37 2 -35 -1 -49 -15 -59 -15 -11 -3 -13 82 -13 104 0
124 -7 124 -43 0 -42 -7 -43 -439 -45 -429 -3 -441 -2 -441 39 0 40 25 49 148
51 64 0 101 3 82 5 -19 3 -40 9 -46 14 -29 24 16 160 67 203 l23 19 -24 16
c-42 27 -90 82 -90 102 0 23 34 42 60 34 27 -9 90 -82 90 -105 0 -18 3 -19 22
-9 20 11 33 14 77 18 11 1 11 5 -3 20 -19 21 -23 92 -7 134 12 30 41 36 64 13z
m-338 -270 c44 -20 55 -29 55 -49 0 -39 -37 -52 -91 -31 -73 29 -89 59 -47 88
27 19 17 21 83 -8z m-536 -428 c2 -29 2 -60 2 -68 -2 -50 -2 -358 -1 -365 2
-6 2 -12 1 -15 -2 -3 -4 -99 -5 -215 -2 -115 -4 -212 -5 -215 -2 -9 -768 -6
-777 2 -4 4 8 25 27 45 19 21 52 60 74 87 22 27 47 56 55 66 8 10 27 33 42 51
14 19 41 50 58 69 18 19 44 51 58 70 15 19 29 37 33 40 3 3 31 37 63 75 32 39
75 90 96 115 54 63 109 129 151 181 21 24 51 60 68 79 17 19 31 38 31 43 0 4
6 7 14 7 9 0 14 -16 15 -52z m90 -282 c17 -25 37 -50 43 -58 7 -7 33 -40 57
-73 25 -33 47 -62 50 -65 3 -3 11 -12 16 -21 6 -9 37 -52 69 -95 50 -66 80
-105 154 -199 39 -50 54 -76 48 -82 -10 -11 -447 -12 -467 -2 -12 6 -16 29
-17 116 0 59 -2 196 -3 303 -2 172 1 220 16 220 2 0 18 -20 34 -44z m718 -650
c7 -7 -20 -76 -80 -206 -21 -47 -50 -110 -64 -140 -34 -76 -71 -156 -99 -214
l-24 -50 -59 -2 c-49 -1 -73 -9 -135 -43 -97 -53 -154 -57 -236 -16 -66 34
-133 52 -180 50 -58 -3 -120 -16 -120 -26 0 -5 -7 -9 -15 -9 -8 0 -32 -9 -54
-21 -22 -11 -64 -22 -93 -24 -46 -2 -64 3 -142 43 -81 42 -95 46 -156 45 -46
0 -79 -7 -108 -22 -45 -23 -62 -26 -62 -12 0 5 -26 65 -59 133 -32 68 -66 141
-76 163 -10 22 -35 76 -56 120 -80 172 -100 218 -94 224 4 3 82 8 173 11 236
7 1732 4 1739 -4z m348 -650 c11 -2 20 -5 20 -6 0 -1 7 -3 16 -5 26 -5 141
-63 165 -82 32 -26 38 -56 16 -81 -22 -26 -42 -22 -141 28 -69 35 -88 39 -168
41 -41 0 -69 -8 -135 -39 -70 -33 -94 -39 -153 -41 -77 -1 -115 9 -189 53 -70
42 -123 40 -217 -9 -62 -32 -86 -39 -150 -43 -73 -4 -80 -3 -165 38 -126 60
-149 59 -294 -9 -57 -26 -74 -30 -140 -27 -60 2 -89 9 -145 35 -121 56 -147
57 -254 4 -71 -36 -81 -38 -166 -37 -83 0 -95 3 -164 38 -72 36 -76 37 -159
32 -70 -4 -98 -11 -159 -41 -86 -40 -108 -43 -123 -16 -17 33 -11 60 18 78 15
10 29 21 32 25 3 3 41 19 85 34 59 20 100 28 155 28 96 0 120 -5 200 -43 105
-50 147 -45 298 34 27 14 52 17 125 13 57 -3 92 -9 95 -16 2 -7 12 -12 23 -12
10 0 19 -4 19 -8 0 -14 98 -44 144 -44 29 0 67 10 102 27 80 38 132 51 189 49
68 -3 86 -8 155 -45 84 -45 136 -42 244 12 78 40 84 41 161 37 67 -4 90 -10
145 -40 86 -46 151 -50 218 -13 112 60 195 75 297 51z"/>
<path d="M3358 3313 c6 -2 18 -2 25 0 6 3 1 5 -13 5 -14 0 -19 -2 -12 -5z"/>
<path d="M3428 3313 c6 -2 18 -2 25 0 6 3 1 5 -13 5 -14 0 -19 -2 -12 -5z"/>
<path d="M3478 3313 c6 -2 18 -2 25 0 6 3 1 5 -13 5 -14 0 -19 -2 -12 -5z"/>
<path d="M3583 3313 c9 -2 25 -2 35 0 9 3 1 5 -18 5 -19 0 -27 -2 -17 -5z"/>
<path d="M3653 3313 c9 -2 25 -2 35 0 9 3 1 5 -18 5 -19 0 -27 -2 -17 -5z"/>
</g>
</svg>
