<?xml version="1.0" encoding="UTF-8"?>
<svg width="1024px" height="1017px" viewBox="0 0 1024 1017" version="1.1" xmlns="http://www.w3.org/2000/svg" xmlns:xlink="http://www.w3.org/1999/xlink">
    <title>ifoto-ai_1714891658696</title>
    <g id="Page-1" stroke="none" stroke-width="1" fill="none" fill-rule="evenodd">
        <g id="ifoto-ai_1714891658696" fill="#7C3AED" fill-rule="nonzero">
            <g id="Group" transform="translate(512.000000, 508.253659) scale(-1, 1) rotate(-180.000000) translate(-512.000000, -508.253659) ">
                <path d="M471.669397,1015.54035 C452.886131,1014.73257 425.229788,1010.80906 403.680888,1005.84697 C399.301967,1004.8084 391.005064,1002.96204 385.243326,1001.80806 C365.307712,997.422965 329.700171,985.306243 308.842679,975.728262 C304.233288,973.535713 300.084837,971.804752 299.739133,971.804752 C298.47155,971.804752 264.938235,954.495149 253.875698,948.148295 C243.2741,942.032235 210.547427,920.799123 207.666558,918.144983 C206.97515,917.567997 203.748576,914.913858 200.406768,912.375116 C175.976999,893.44995 163.992584,883.179586 150.164412,869.447301 C139.332345,858.715347 122.969008,840.828757 116.400627,832.520148 C105.33809,818.672466 98.1935347,809.556075 95.5431352,805.632565 C86.439589,792.592664 68.9239053,765.935875 68.9239053,765.243491 C68.9239053,764.781902 66.2735058,759.819816 63.0469324,754.165346 C56.8242553,743.433392 43.5722577,716.430411 38.2714587,703.967497 C32.6249554,690.235212 19.6034273,653.308059 18.1053754,646.384218 C17.6444364,644.191669 16.376854,639.460377 15.3397411,635.998457 C13.6112197,630.228589 10.1541769,615.342331 6.81236879,599.648291 C1.51156975,573.799284 -0.562655954,545.411535 0.128752616,503.522296 C0.820161185,457.13256 2.66391737,438.553587 10.6151159,398.856897 C14.8788021,377.739182 25.2499306,342.0814 29.7440863,333.080406 C30.3202601,331.811035 31.9335468,327.425936 33.2011292,323.387029 C34.4687116,319.348121 35.9667635,315.424611 36.5429373,314.732227 C37.0038763,314.039843 38.617163,310.347128 39.9999801,306.539015 C48.4121177,283.805737 77.5665124,232.22312 96.3497785,206.720305 C124.69753,168.523782 161.687888,130.096463 193.838387,105.747622 C214.350174,90.0535821 242.121752,71.1284163 250.418655,67.0895089 C252.377646,66.1663301 255.604219,64.2045751 257.678445,62.8198069 C261.365957,60.3964625 286.256666,47.9335484 298.817255,42.2790781 C309.764557,37.316992 337.997074,26.3542435 344.911159,24.3924885 C348.713906,23.3539123 359.891678,20.0073891 369.686633,17.1224553 C394.116402,9.96781945 421.427041,4.54414388 450.350966,1.19762066 C464.640076,-0.417942277 551.757556,-0.417942277 569.50371,1.31301801 C577.109204,1.89000477 588.978384,3.62096506 596.007705,4.89033594 C603.037025,6.15970681 612.140571,7.77526975 616.289023,8.46765386 C623.779282,9.73702474 648.669991,15.9684818 659.502058,19.4304023 C662.728632,20.4689785 669.412248,22.4307335 674.482577,23.8155017 C679.552907,25.3156673 686.351758,27.508217 689.463096,28.7775879 C692.68967,30.1623561 700.179929,33.0472899 706.172137,35.355237 C716.773735,39.3941443 719.539369,40.5481179 738.43787,49.5491113 C749.154703,54.5111975 751.459398,55.7805684 758.027779,59.3578863 C770.588368,66.2817275 779.691915,71.4746083 784.41654,74.7057342 C787.066939,76.5520918 791.561095,79.3216283 794.211495,80.9371912 C799.857998,84.2837144 811.266239,92.5923238 823.596359,102.285701 C828.436219,106.093814 833.621783,110.017324 835.23507,111.0559 C839.613991,113.940834 863.352351,135.635536 875.567236,147.867656 C901.379823,173.83206 922.237315,199.334875 939.176825,225.760869 C943.67098,232.800107 948.280371,239.839346 949.432718,241.570306 C950.700301,243.301266 951.622179,245.032226 951.622179,245.378418 C951.622179,245.724611 953.004996,248.147955 954.733517,250.917491 C958.42103,256.687359 962.223777,263.841995 970.866384,281.151598 C983.887912,307.231399 987.921129,316.924777 996.218032,341.735208 C997.831318,346.466499 1000.02078,353.044148 1001.17313,356.159877 C1003.47782,362.391334 1006.35869,373.815672 1011.65949,397.702924 C1015.92318,416.858884 1017.88217,429.091004 1019.49545,445.015838 C1020.18686,452.055077 1021.56968,465.44117 1022.60679,474.903753 C1025.02672,496.944647 1024.68102,506.638024 1018.45834,572.991502 C1017.76693,580.607727 1016.49935,590.185708 1015.57747,594.340012 C1014.77083,598.494317 1013.04231,607.379913 1011.65949,614.07296 C1007.16533,637.037033 992.760989,684.003755 984.694555,701.774948 C981.007043,709.852762 976.628122,719.776934 975.014835,723.700444 C974.092957,725.892994 972.94061,728.547133 972.364436,729.470312 C971.788262,730.393491 968.907393,736.163359 965.911289,742.164021 C962.799951,748.164683 958.651499,755.896306 956.462039,759.358226 C954.272578,762.820147 952.198353,766.397465 951.737414,767.436041 C949.893657,772.051935 930.534217,801.016671 920.508793,814.056571 C915.784168,820.403426 910.713839,827.096472 909.331021,828.94283 C902.071231,839.097797 863.237117,879.140678 849.639415,890.680414 C828.551454,908.451606 795.018138,933.146639 780.268088,941.801441 C763.098109,951.84101 753.533624,957.033891 737.285522,964.880911 C726.799159,970.073792 717.234674,974.805083 716.082326,975.497468 C713.547161,976.882236 703.982676,980.574951 688.310749,986.229421 C682.664245,988.306574 676.672038,990.499123 675.058751,991.191508 C668.951309,993.730249 648.669991,999.615514 638.759801,1001.69267 C583.908055,1013.4632 576.648265,1014.61717 550.029035,1015.65575 C522.603162,1016.80972 500.247618,1016.80972 471.669397,1015.54035 Z M704.097911,750.93422 C704.55885,750.241836 705.019789,744.241173 705.019789,737.778921 C705.019789,726.008392 704.904554,725.662199 701.677981,722.661868 L698.336173,719.54614 L707.439719,717.468987 C712.394814,716.315014 716.773735,714.930246 717.234674,714.353259 C718.84796,711.69912 721.152656,713.43008 721.152656,717.35359 C721.152656,720.584716 722.305003,722.431074 727.836272,728.085544 C737.170288,737.548127 739.590218,739.048292 744.775782,738.009716 C752.611746,736.624948 753.072685,727.623954 745.69766,720.584716 C737.746461,713.083888 731.869489,708.698789 729.795263,708.698789 C728.181976,708.698789 728.75815,707.77561 731.869489,704.775279 C736.248409,700.620974 743.508199,689.88902 744.545312,686.196305 C744.891017,684.580742 745.121486,684.926934 745.236721,687.465676 C745.46719,693.120146 751.459398,698.313027 757.79731,698.313027 C759.525831,698.313027 761.600057,698.890014 762.176231,699.467 C762.867639,700.159385 765.978978,700.967166 769.205551,701.313358 C774.160646,702.005742 775.312994,701.65955 777.387219,699.467 C778.654802,698.082232 779.922384,696.00508 780.268088,694.851106 C781.074732,691.850775 776.695811,685.734716 773.123533,684.926934 C771.510247,684.580742 768.514143,683.542166 766.439917,682.618987 C764.480926,681.695808 762.060996,681.003424 761.139118,681.003424 C760.102005,681.003424 758.949658,680.541835 758.603953,679.849451 C757.56684,678.11849 753.072685,678.464682 750.191816,680.541835 C748.693764,681.580411 747.310947,682.157398 747.080477,681.926603 C746.850008,681.695808 747.080477,678.003093 747.656651,673.617994 C748.348059,668.309715 748.232825,664.732397 747.426181,663.001437 L746.158599,660.231901 L696.953356,660.231901 C660.308702,660.231901 647.517643,660.578093 646.48053,661.616669 C644.521539,663.578424 644.752009,676.618325 646.711,681.234219 C647.632878,683.311371 649.361399,687.234881 650.398512,690.004418 C651.55086,692.658557 652.818442,694.851106 653.394616,694.851106 C653.855555,694.851106 654.316494,695.54349 654.316494,696.351272 C654.316494,697.043656 656.851659,700.159385 659.847763,703.159716 L665.379031,708.467994 L662.152458,709.160378 C660.423936,709.50657 655.353607,713.199285 650.628982,717.699782 C643.253957,724.739021 642.332079,726.123789 642.332079,729.931902 C642.332079,735.586372 645.097713,738.125114 651.089921,738.009716 C655.468842,737.894319 656.621189,737.086537 663.765744,729.701107 C670.564595,722.777266 671.601708,721.046305 671.601708,717.468987 C671.601708,714.237862 672.062647,713.314683 673.675934,713.314683 C674.828282,713.314683 676.326333,713.89167 677.017742,714.584054 C678.17009,715.738027 681.511898,716.661206 691.422087,718.738358 L694.648661,719.315345 L691.191618,722.546471 C687.84981,725.662199 687.734575,726.008392 687.734575,737.201935 C687.84981,748.972465 688.310749,750.47263 693.496313,753.819153 C696.146712,755.550114 696.722886,755.550114 699.834225,753.934551 C701.793216,753.011372 703.636972,751.626604 704.097911,750.93422 Z M629.425786,700.043987 C631.154307,699.120808 633.574237,698.313027 634.726585,698.313027 C635.763697,698.313027 638.875036,696.697464 641.410201,694.851106 C645.443417,691.966173 646.250061,690.696802 646.250061,687.465676 C646.250061,684.349947 645.443417,682.965179 642.908253,681.118821 C641.064496,679.734053 638.990271,678.695477 638.183627,678.695477 C636.109402,678.695477 625.046865,682.388192 623.894517,683.426768 C623.203108,684.003755 621.935526,684.465345 620.898413,684.465345 C618.248014,684.465345 615.25191,688.042663 614.445267,692.196967 C613.869093,695.197298 614.330032,696.466669 616.634727,698.774616 C620.09177,702.236537 624.470691,702.582729 629.425786,700.043987 Z M784.070836,655.269814 C787.527878,651.11551 787.527878,648.692165 783.955601,644.537861 L781.074732,641.191337 L698.105703,640.845145 L615.02144,640.614351 L612.255806,643.614682 C609.374937,646.73041 608.337824,652.154086 610.527285,652.154086 C611.218693,652.154086 611.679632,652.84647 611.679632,653.654252 C611.679632,654.462033 613.062449,655.962199 614.906206,657.116172 C617.787075,658.847132 624.240221,659.077927 699.603755,658.731735 L781.305201,658.50094 L784.070836,655.269814 Z M527.788726,530.986866 C527.673491,479.865839 527.327787,437.399613 526.982082,436.707229 C526.636378,435.553255 509.812103,435.207063 448.161506,435.207063 C405.063705,435.207063 369.571398,435.668653 369.225694,436.130242 C368.87999,436.707229 370.723746,439.361368 373.143676,442.015507 C375.678841,444.785044 378.444475,447.900772 379.251118,448.939348 C380.74917,451.247295 389.161308,461.286865 391.120299,463.364017 C391.696472,464.056401 394.807811,467.749117 397.803915,471.557229 C400.915253,475.249945 404.026592,479.058057 404.718,479.750441 C405.409409,480.558223 407.59887,483.096965 409.55786,485.635706 C415.550068,492.90574 439.288429,521.178091 439.979838,521.755078 C440.325542,522.10127 442.399768,524.640011 444.589228,527.524945 C446.778688,530.409879 449.544323,533.756402 450.92714,535.025773 C452.194722,536.295144 455.421296,540.218654 458.071695,543.680575 C460.722095,547.142495 464.179137,551.2968 465.677189,552.912363 C467.060006,554.527926 470.632284,558.68223 473.513153,562.144151 C481.925291,572.529913 483.077638,573.914681 484.921395,575.876436 C485.843273,576.915012 489.64602,581.415509 493.218297,585.800608 C496.790575,590.301105 500.708557,594.916999 501.860904,596.18637 C503.013252,597.455741 505.894121,600.802264 508.198816,603.687198 C510.503512,606.572132 514.075789,610.726436 516.03478,612.918986 C517.993771,615.111536 520.644171,618.688854 522.142223,620.766006 C523.52504,622.843158 525.484031,624.343324 526.405909,624.112529 C527.903961,623.881735 528.13443,612.803589 527.788726,530.986866 Z M540.23408,563.644317 C540.23408,563.06733 541.847367,560.990177 543.691123,558.797628 C545.650114,556.720475 547.148166,554.527926 547.148166,554.181734 C547.148166,553.720144 548.070044,552.335376 549.222391,551.066005 C550.374739,549.912032 555.099364,543.680575 559.82399,537.33372 C564.548615,530.986866 568.697066,525.56319 569.04277,525.216998 C570.771292,523.716833 577.109204,514.946634 577.109204,514.25425 C577.109204,513.908058 577.800612,512.869482 578.607256,512.0617 C579.298664,511.253919 581.257655,508.945972 582.870942,506.868819 C584.484229,504.791667 587.941271,500.406567 590.706906,497.060044 C593.357305,493.713521 595.546766,490.366998 595.546766,489.674614 C595.546766,488.98223 596.007705,488.289845 596.468644,488.059051 C597.044818,487.943653 599.695217,484.59713 602.576086,480.789018 C605.34172,476.980905 608.222589,473.403587 608.913998,472.711203 C609.605407,472.134216 613.638623,466.595143 618.017544,460.594481 C622.396465,454.593819 626.314447,449.400938 626.660151,449.054746 C627.005856,448.708554 628.964846,446.285209 631.039072,443.746467 C637.953158,434.745474 640.718792,435.207063 586.443219,435.207063 C553.831782,435.207063 537.81415,435.553255 537.353211,436.476434 C536.316098,437.9766 535.048516,560.182396 535.970394,562.60574 C536.661802,564.452098 540.23408,565.25988 540.23408,563.644317 Z M688.195514,426.436865 C689.232627,426.090672 690.03927,424.705904 690.03927,423.436533 C690.03927,421.128586 689.578331,419.859215 683.240419,406.011533 C681.281428,401.741831 679.668142,397.702924 679.668142,397.125937 C679.668142,396.433553 679.207203,395.971963 678.515794,395.971963 C677.93962,395.971963 677.363446,395.164182 677.363446,394.125606 C677.363446,393.08703 676.672038,390.89448 675.75016,389.278917 C674.943516,387.547957 672.869291,383.162857 671.140769,379.585539 C669.527483,375.892824 666.877083,370.122957 665.379031,366.891831 C663.765744,363.545307 662.152458,359.621797 661.806754,358.237029 C661.345814,356.736864 660.539171,355.58289 659.962997,355.58289 C659.386824,355.58289 658.925884,354.775109 658.925884,353.85193 C658.925884,352.813354 656.851659,347.505075 654.201259,341.966003 C645.212948,322.579247 644.175835,320.2713 640.257853,312.078088 L636.455106,303.654081 L625.277334,303.654081 C619.169892,303.654081 613.869093,303.192492 613.523388,302.615505 C613.177684,302.153916 611.333928,301.346134 609.490172,300.999942 C607.531181,300.538353 601.999912,297.768817 597.044818,294.768485 C582.870942,285.998287 582.294768,285.767492 571.4627,285.767492 C563.511502,285.767492 560.630633,286.229081 556.94312,288.306234 C535.278985,300.076764 523.640274,303.077095 506.700764,301.346134 C497.366749,300.422956 496.790575,300.192161 479.159656,291.652757 C467.981885,286.229081 466.253363,285.767492 457.034582,285.4213 C447.470097,284.95971 446.432984,285.190505 439.173194,288.767823 C434.794273,290.960373 428.571596,294.422293 425.345023,296.499446 C422.003215,298.576598 417.739529,300.538353 415.780538,300.999942 C413.821547,301.346134 411.97779,302.153916 411.632086,302.615505 C411.286382,303.192492 405.985583,303.654081 399.87814,303.654081 C388.354664,303.654081 382.362457,302.269313 375.333136,297.999611 C369.225694,294.306896 368.303816,293.960704 366.46006,295.230075 C364.270599,296.499446 364.04013,296.845638 358.047922,310.000936 C348.483437,330.772459 345.256864,337.811698 343.067403,342.0814 C341.915055,344.504744 340.877943,347.158883 340.877943,348.082062 C340.877943,349.005241 340.417004,349.813022 339.725595,349.813022 C339.149421,349.813022 338.573247,350.390009 338.573247,351.082393 C338.573247,351.890175 336.729491,356.390672 334.424796,361.23736 C332.120101,366.084049 329.354466,372.084712 328.202119,374.623453 C324.514606,382.701268 316.563408,399.664679 312.069252,409.242659 C306.537984,420.782394 305.500871,424.705904 307.575096,426.090672 C309.418853,427.244646 685.314645,427.590838 688.195514,426.436865 Z M749.269938,297.768817 C764.480926,294.883883 770.242664,293.037525 783.379427,286.344479 C787.527878,284.151929 792.022035,281.959379 793.404851,281.266995 C794.902903,280.574611 796.055251,279.651432 796.055251,279.189843 C796.055251,278.612856 796.746659,278.266664 797.553303,278.266664 C798.359946,278.266664 800.434172,276.766498 802.162693,275.035538 C806.19591,270.881233 806.541614,263.726598 802.854102,260.610869 C796.400955,255.071796 796.28572,255.071796 775.889167,265.919147 C763.098109,272.727591 753.879328,275.150935 741.318739,275.150935 C732.560897,275.150935 726.799159,273.766167 718.84796,269.611863 C697.990469,258.879909 695.801008,258.302922 679.898611,258.302922 C671.832178,258.418319 666.300909,258.879909 665.494266,259.68769 C664.802857,260.380074 663.304805,260.957061 662.037223,260.957061 C660.193467,260.957061 652.472738,264.880571 643.369192,270.419644 C639.335975,272.842988 639.105505,272.958386 632.882828,274.804743 C630.232429,275.612525 626.083977,275.958717 623.664047,275.612525 C615.02144,274.343154 611.103458,273.304578 609.374937,272.035207 C608.453059,271.342823 606.148364,269.842657 604.189373,268.804081 C592.896366,262.688021 589.208854,260.957061 587.019393,260.957061 C585.636576,260.957061 583.908055,260.380074 583.216646,259.68769 C581.37289,257.841333 559.247816,257.95673 553.486078,259.803088 C550.950913,260.610869 545.995818,262.688021 542.538775,264.418982 C539.081732,266.149942 533.665699,268.919478 530.439125,270.535041 C523.064101,274.227757 517.417597,275.958717 512.808207,275.958717 C507.622643,275.958717 490.106959,270.996631 488.378437,268.919478 C487.456559,267.880902 473.167449,261.41865 468.673293,259.918485 C463.602964,258.302922 440.440777,258.187525 439.403664,259.803088 C439.057959,260.495472 437.444673,260.957061 435.831386,260.957061 C433.065752,260.957061 424.884084,264.649776 415.204364,270.188849 C410.825443,272.727591 405.985583,274.227757 397.45821,275.612525 C391.466003,276.535704 382.247222,273.419975 370.493276,266.380737 C359.776443,259.918485 354.12994,258.418319 339.379891,258.418319 C330.737284,258.418319 325.206015,258.879909 324.399372,259.68769 C323.707963,260.380074 322.325146,260.957061 321.288033,260.957061 C320.366155,260.957061 313.567304,263.957392 306.307514,267.53471 L293.055517,274.112359 L278.996876,274.112359 C265.053469,274.112359 258.715558,272.842988 247.88349,268.227094 C245.924499,267.419313 243.735039,266.726929 243.04363,266.726929 C242.352221,266.726929 241.776048,266.265339 241.776048,265.572955 C241.776048,264.995968 241.199874,264.418982 240.6237,264.418982 C239.932291,264.418982 237.397127,263.149611 234.861962,261.534048 C229.445928,258.072127 222.762312,257.841333 218.959565,260.726266 C216.885339,262.341829 216.193931,264.07279 216.078696,268.342492 C215.848226,273.304578 216.193931,274.227757 219.535739,276.997293 C222.877547,279.76683 236.01431,286.806068 241.199874,288.652426 C242.467456,289.114015 245.348325,290.152591 247.537786,290.960373 C249.727246,291.768154 253.414759,292.691333 255.604219,292.922128 C257.793679,293.26832 260.328844,294.076101 261.250722,294.883883 C263.555418,296.73024 293.170751,296.499446 295.014507,294.653088 C295.821151,293.845307 297.780142,293.26832 299.508663,293.26832 C301.237185,293.26832 304.118054,292.575936 305.96181,291.652757 C330.852518,279.30524 328.778293,279.997624 340.301769,280.113022 C349.405315,280.343816 351.594775,280.690008 355.973696,283.22875 C358.739331,284.844313 364.385834,287.844644 368.534285,289.806399 C372.682737,291.768154 376.946423,293.960704 378.214005,294.537691 C383.745274,297.538022 409.78833,297.653419 415.319599,294.653088 C416.587181,293.960704 418.315702,293.152922 419.23758,292.80673 C420.159459,292.460538 421.772745,291.652757 422.694623,291.191167 C423.616501,290.614181 425.460258,289.691002 426.72784,288.998618 C427.995422,288.421631 430.645822,287.036863 432.489578,286.113684 C441.708359,281.151598 445.050167,280.343816 455.421296,280.113022 C466.714302,279.997624 464.755311,279.420637 487.802264,290.498783 C491.028837,291.998949 494.716349,293.26832 496.099166,293.26832 C497.481984,293.26832 498.980035,293.845307 499.32574,294.422293 C499.786679,295.114677 505.663652,295.576267 513.153911,295.576267 C520.644171,295.576267 526.521143,295.114677 526.982082,294.422293 C527.327787,293.845307 528.825839,293.26832 530.323891,293.26832 C531.706708,293.26832 538.620793,290.267989 545.534879,286.690671 L558.095468,280.113022 L569.27324,280.228419 C580.335777,280.228419 580.451012,280.343816 587.941271,285.075108 C592.089723,287.613849 596.238174,289.806399 597.160052,289.806399 C597.966696,289.806399 599.349513,290.614181 600.156156,291.537359 C600.962799,292.460538 602.460851,293.26832 603.497964,293.26832 C604.535077,293.26832 606.033129,293.845307 606.609303,294.422293 C608.453059,296.268651 622.5117,297.422624 632.421889,296.614843 C639.912149,295.922459 642.793018,294.99928 653.625085,289.34481 C660.539171,285.767492 666.877083,282.305571 667.683726,281.613187 C668.49037,280.920803 673.791169,280.343816 679.437672,280.343816 C690.615444,280.228419 688.771688,279.651432 709.62918,290.498783 C718.156552,294.99928 730.717141,298.576598 738.322635,298.92279 C740.512096,298.92279 745.46719,298.461201 749.269938,297.768817 Z" id="Shape"></path>
            </g>
        </g>
    </g>
</svg>