<?xml version="1.0" encoding="UTF-8"?>
<svg width="127px" height="126px" viewBox="0 0 127 126" version="1.1" xmlns="http://www.w3.org/2000/svg" xmlns:xlink="http://www.w3.org/1999/xlink">
    <title>ifoto-ai_1714891658696</title>
    <g id="Page-1" stroke="none" stroke-width="1" fill="none" fill-rule="evenodd">
        <g id="ifoto-ai_1714891658696" fill="#7C3AED" fill-rule="nonzero">
            <g id="Group" transform="translate(63.500000, 63.000000) scale(-1, 1) rotate(-180.000000) translate(-63.500000, -63.000000) translate(0.000000, 0.000000)">
                <path d="M58.49806,125.880141 C56.1684947,125.780013 52.73846,125.293679 50.0658913,124.678609 C49.5228025,124.549874 48.4937921,124.32101 47.7792015,124.177971 C45.3067182,123.634421 40.8905485,122.132507 38.3037307,120.945279 C37.7320582,120.673504 37.217553,120.458945 37.1746776,120.458945 C37.0174677,120.458945 32.8585506,118.313353 31.4865367,117.526636 C30.1716901,116.768527 26.1128157,114.1366 25.7555204,113.80761 C25.6697695,113.73609 25.2695988,113.407099 24.8551363,113.092412 C21.8252723,110.746565 20.3389239,109.473514 18.6239066,107.771344 C17.2804763,106.441077 15.2510391,104.223965 14.4364059,103.194081 C13.064392,101.477608 12.1782997,100.347596 11.8495881,99.8612616 C10.720535,98.2449157 8.54817966,94.940704 8.54817966,94.8548803 C8.54817966,94.7976645 8.219468,94.1825948 7.81929728,93.4817015 C7.04753948,92.1514344 5.40398118,88.8043109 4.74655787,87.2594847 C4.04625911,85.557315 2.43128444,80.9800521 2.2454909,80.1218153 C2.18832365,79.8500403 2.03111373,79.2635785 1.90248743,78.8344601 C1.68811026,78.1192628 1.25935592,76.2740537 0.844893394,74.3287169 C0.187470077,71.1246329 -0.0697825255,67.605862 0.015968342,62.4135294 C0.101719209,56.6633428 0.330388189,54.3604074 1.31652317,49.4398498 C1.84532018,46.8222275 3.13158319,42.402308 3.68896383,41.2866002 C3.76042289,41.1292568 3.96050825,40.5857068 4.11771817,40.0850687 C4.27492809,39.5844306 4.46072164,39.0980964 4.5321807,39.0122727 C4.58934794,38.926449 4.7894333,38.4687227 4.96093503,37.9966925 C6.00423726,35.178815 9.6200655,28.7849508 11.9496307,25.6237786 C15.4654163,20.8891723 20.0530877,16.1259581 24.0405031,13.1078253 C26.5844455,11.1624886 30.028772,8.81664135 31.0577824,8.31600322 C31.3007432,8.20157165 31.7009139,7.95840456 31.9581665,7.7867572 C32.4155044,7.48637432 35.5025357,5.94154808 37.0603431,5.2406547 C38.4180652,4.62558499 41.9195589,3.26671006 42.7770676,3.02354297 C43.2486974,2.89480745 44.6350031,2.479993 45.849807,2.12239433 C48.879671,1.23554964 52.2668303,0.563264149 55.8540749,0.148449697 C57.6262595,-0.0518055562 68.4308688,-0.0518055562 70.6318077,0.162753643 C71.5750673,0.234273376 73.0471238,0.448832576 73.9189243,0.606175989 C74.7907248,0.763519402 75.9197779,0.963774655 76.4342831,1.04959833 C77.3632508,1.20694175 80.4502821,1.97935487 81.7937123,2.40847326 C82.193883,2.53720878 83.0228081,2.78037588 83.6516478,2.95202324 C84.2804875,3.13797454 85.1237043,3.40974953 85.5095832,3.56709294 C85.9097539,3.7387403 86.8387217,4.09633897 87.5818959,4.3824179 C88.8967425,4.88305603 89.239746,5.0260955 91.583603,6.14180333 C92.9127415,6.75687304 93.1985777,6.91421645 94.0132109,7.3576388 C95.5710184,8.2158756 96.7000714,8.85955319 97.2860357,9.2600637 C97.6147474,9.48892685 98.172128,9.83222156 98.5008397,10.0324768 C99.2011384,10.4472913 100.616028,11.4771754 102.145252,12.6787069 C102.745508,13.1507372 103.388639,13.6370714 103.588724,13.7658069 C104.131813,14.1234056 107.075926,16.8125475 108.590858,18.3287659 C111.792224,21.5471539 114.379042,24.7083261 116.479938,27.9839298 C117.037319,28.8564706 117.608991,29.7290113 117.751909,29.9435705 C117.909119,30.1581297 118.023454,30.3726889 118.023454,30.4156008 C118.023454,30.4585126 118.194956,30.7588955 118.409333,31.1021902 C118.866671,31.8173875 119.3383,32.7042322 120.410186,34.8498242 C122.025161,38.0825162 122.525374,39.2840477 123.554385,42.3593962 C123.75447,42.945858 124.026015,43.761183 124.168933,44.1473895 C124.454769,44.9198026 124.812064,46.3358934 125.469487,49.2968103 C125.998284,51.6712655 126.241245,53.1874838 126.441331,55.1614284 C126.527082,56.0339692 126.698583,57.693227 126.82721,58.8661506 C127.127338,61.5982044 127.084462,62.7997359 126.312704,71.0245052 C126.226953,71.9685657 126.069744,73.1557933 125.955409,73.6707354 C125.855366,74.1856774 125.640989,75.2870813 125.469487,76.1167102 C124.912107,78.9631956 123.12563,84.7849019 122.125204,86.9877097 C121.667866,87.9889859 121.124777,89.2191254 120.924692,89.7054595 C120.810357,89.9772345 120.667439,90.3062253 120.59598,90.4206569 C120.524521,90.5350884 120.167226,91.2502858 119.795638,91.994091 C119.40976,92.7378962 118.895254,93.6962607 118.62371,94.125379 C118.352165,94.5544974 118.094913,94.9979198 118.037746,95.1266553 C117.809077,95.6988132 115.408052,99.2891038 114.164665,100.90545 C113.578701,101.692167 112.949861,102.521796 112.778359,102.750659 C111.877975,104.009406 107.061635,108.972876 105.375201,110.40327 C102.759799,112.606078 98.6008823,115.667123 96.7715305,116.739919 C94.6420506,117.984362 93.4558303,118.62804 91.4406849,119.600708 C90.1401301,120.244386 88.9539097,120.830847 88.8109916,120.916671 C88.4965718,121.088318 87.3103514,121.546045 85.3666651,122.246938 C84.6663664,122.504409 83.9231922,122.776184 83.7231068,122.862008 C82.9656408,123.176695 80.4502821,123.906196 79.2211863,124.163667 C72.4182841,125.62267 71.5179,125.765709 68.2164916,125.894445 C64.8150405,126.037484 62.0424292,126.037484 58.49806,125.880141 Z M87.3246433,93.0811909 C87.3818105,92.9953673 87.4389778,92.251562 87.4389778,91.450541 C87.4389778,89.9915385 87.4246859,89.9486266 87.0245152,89.576724 L86.6100527,89.1905175 L87.7391058,88.9330464 C88.3536537,88.790007 88.8967425,88.6183596 88.9539097,88.5468399 C89.1539951,88.2178491 89.4398313,88.4324083 89.4398313,88.9187425 C89.4398313,89.319253 89.5827494,89.5481161 90.2687564,90.2490095 C91.4263931,91.4219331 91.7265211,91.6078844 92.3696526,91.4791489 C93.3414958,91.3075016 93.398663,90.1917937 92.4839871,89.319253 C91.4978521,88.3894965 90.7689698,87.8459465 90.5117172,87.8459465 C90.3116318,87.8459465 90.3830909,87.7315149 90.7689698,87.3596123 C91.3120586,86.8446702 92.2124427,85.5144032 92.341069,85.0566769 C92.3839444,84.8564216 92.4125281,84.8993335 92.4268199,85.2140203 C92.4554035,85.9149137 93.1985777,86.5585913 93.9846273,86.5585913 C94.1990045,86.5585913 94.4562571,86.630111 94.5277161,86.7016307 C94.613467,86.7874544 94.9993459,86.8875821 95.3995166,86.9304939 C96.0140645,87.0163176 96.1569826,86.9734057 96.4142352,86.7016307 C96.5714451,86.5299834 96.7286551,86.2725124 96.7715305,86.1294729 C96.8715732,85.7575703 96.3284843,84.9994611 95.8854382,84.8993335 C95.6853528,84.8564216 95.3137657,84.7276861 95.0565131,84.6132545 C94.8135524,84.498823 94.5134243,84.4129993 94.3990898,84.4129993 C94.2704635,84.4129993 94.1275454,84.3557835 94.08467,84.2699598 C93.9560437,84.0554006 93.398663,84.0983125 93.0413678,84.3557835 C92.8555742,84.484519 92.6840725,84.5560388 92.6554889,84.5274309 C92.6269052,84.498823 92.6554889,84.0410967 92.7269479,83.4975467 C92.8126988,82.8395652 92.798407,82.3961428 92.6983643,82.1815836 L92.5411544,81.8382889 L86.438551,81.8382889 C81.893755,81.8382889 80.3073639,81.8812007 80.1787376,82.0099363 C79.9357768,82.2531033 79.9643605,83.8694493 80.2073213,84.4416072 C80.3216557,84.6990782 80.5360329,85.1854124 80.6646592,85.5287071 C80.8075773,85.8576979 80.9647873,86.1294729 81.0362463,86.1294729 C81.0934136,86.1294729 81.1505808,86.2152966 81.1505808,86.3154242 C81.1505808,86.4012479 81.4650006,86.7874544 81.8365877,87.159357 L82.5225947,87.8173386 L82.122424,87.9031623 C81.9080468,87.9460741 81.2792071,88.4038004 80.6932428,88.9616543 C79.7785669,89.8341951 79.6642324,90.0058424 79.6642324,90.4778727 C79.6642324,91.178766 80.0072359,91.4934529 80.7504101,91.4791489 C81.2934989,91.464845 81.436417,91.3647174 82.3225093,90.4492648 C83.1657262,89.591028 83.2943525,89.3764688 83.2943525,88.9330464 C83.2943525,88.5325359 83.3515197,88.4181043 83.5516051,88.4181043 C83.6945232,88.4181043 83.8803167,88.4896241 83.9660676,88.5754478 C84.1089857,88.7184872 84.5234483,88.8329188 85.752544,89.0903898 L86.1527147,89.1619096 L85.7239604,89.5624201 C85.3094979,89.9486266 85.2952061,89.9915385 85.2952061,91.3790213 C85.3094979,92.8380239 85.3666651,93.0239752 86.0097966,93.4387896 C86.3385083,93.6533488 86.4099673,93.6533488 86.7958462,93.4530936 C87.038807,93.338662 87.267476,93.1670146 87.3246433,93.0811909 Z M78.0635496,86.7731505 C78.2779267,86.6587189 78.5780548,86.5585913 78.7209729,86.5585913 C78.8495992,86.5585913 79.2354781,86.358336 79.5498979,86.1294729 C80.0501113,85.7718742 80.150154,85.6145308 80.150154,85.2140203 C80.150154,84.8278137 80.0501113,84.6561664 79.7356915,84.4273032 C79.5070225,84.2556559 79.2497699,84.1269204 79.1497272,84.1269204 C78.8924746,84.1269204 77.5204607,84.5846466 77.3775426,84.7133822 C77.2917918,84.7849019 77.1345818,84.8421177 77.0059555,84.8421177 C76.6772439,84.8421177 76.3056568,85.28554 76.2056141,85.8004821 C76.1341551,86.1723847 76.1913223,86.3297281 76.4771585,86.6158071 C76.9059129,87.0449255 77.4490017,87.0878373 78.0635496,86.7731505 Z M97.2431603,81.2232192 C97.6719146,80.7082771 97.6719146,80.4078942 97.2288685,79.8929522 L96.8715732,79.4781377 L86.5814691,79.4352259 L76.2770732,79.406618 L75.9340697,79.7785206 C75.5767744,80.1647271 75.4481481,80.8370126 75.7196925,80.8370126 C75.8054434,80.8370126 75.8626106,80.9228363 75.8626106,81.0229639 C75.8626106,81.1230916 76.0341124,81.3090429 76.2627814,81.4520823 C76.6200766,81.6666415 77.4204181,81.6952494 86.7672626,81.6523376 L96.9001568,81.6237297 L97.2431603,81.2232192 Z M65.4581721,65.8178687 C65.4438802,59.4812203 65.4010048,54.217368 65.3581294,54.1315443 C65.3152539,53.9885048 63.2286495,53.945593 55.5825305,53.945593 C50.2373931,53.945593 45.8355152,54.0028088 45.7926398,54.0600245 C45.7497643,54.1315443 45.9784333,54.460535 46.2785614,54.7895258 C46.5929812,55.1328205 46.9359847,55.5190271 47.0360274,55.6477626 C47.2218209,55.9338415 48.2651231,57.1782849 48.5080839,57.4357559 C48.579543,57.5215796 48.9654219,57.9793059 49.337009,58.4513362 C49.7228879,58.9090624 50.1087668,59.3810927 50.1945176,59.4669164 C50.2802685,59.567044 50.5518129,59.8817308 50.7947737,60.1964176 C51.5379479,61.0975663 54.482061,64.6020332 54.5678119,64.6735529 C54.6106873,64.7164648 54.8679399,65.0311516 55.1394843,65.3887503 C55.4110287,65.7463489 55.7540322,66.1611634 55.9255339,66.3185068 C56.0827439,66.4758502 56.4829146,66.9621844 56.8116262,67.3913028 C57.1403379,67.8204212 57.5690922,68.3353633 57.7548858,68.5356185 C57.9263875,68.7358738 58.3694337,69.2508159 58.726729,69.6799343 C59.7700312,70.9672895 59.9129493,71.1389368 60.1416183,71.3821039 C60.2559528,71.5108394 60.7275825,72.0686933 61.1706287,72.6122433 C61.6136748,73.1700972 62.0995964,73.7422551 62.2425145,73.8995985 C62.3854326,74.0569419 62.7427279,74.4717564 63.0285641,74.829355 C63.3144004,75.1869537 63.7574465,75.7018958 64.0004073,75.9736708 C64.2433681,76.2454458 64.5720798,76.6888681 64.7578733,76.9463391 C64.929375,77.2038102 65.1723358,77.3897615 65.2866703,77.3611536 C65.4724639,77.3325457 65.5010475,75.9593668 65.4581721,65.8178687 Z M67.0016877,69.8658856 C67.0016877,69.7943658 67.201773,69.5368948 67.430442,69.2651198 C67.6734028,69.0076488 67.8591963,68.7358738 67.8591963,68.6929619 C67.8591963,68.6357462 67.9735308,68.4640988 68.1164489,68.3067554 C68.2593671,68.1637159 68.8453313,67.3913028 69.4312956,66.6045857 C70.0172598,65.8178687 70.531765,65.1455832 70.5746405,65.1026713 C70.7890176,64.91672 71.5750673,63.8296201 71.5750673,63.7437964 C71.5750673,63.7008846 71.6608181,63.572149 71.7608608,63.4720214 C71.8466117,63.3718938 72.0895725,63.0858149 72.2896578,62.8283438 C72.4897432,62.5708728 72.9184975,62.0273228 73.261501,61.6125084 C73.5902127,61.1976939 73.8617571,60.7828795 73.8617571,60.6970558 C73.8617571,60.6112321 73.9189243,60.5254084 73.9760916,60.4968005 C74.0475506,60.4824966 74.3762623,60.0676821 74.7335576,59.5956519 C75.076561,59.1236216 75.4338563,58.6801993 75.5196072,58.5943756 C75.605358,58.5228559 76.1055714,57.8362665 76.6486603,57.0924612 C77.1917491,56.348656 77.6776707,55.7049784 77.7205461,55.6620666 C77.7634215,55.6191547 78.0063823,55.3187718 78.2636349,55.004085 C79.1211436,53.8883772 79.4641471,53.945593 72.732704,53.945593 C68.6881214,53.945593 66.7015596,53.9885048 66.6443924,54.1029364 C66.5157661,54.2888877 66.3585562,69.4367672 66.4728906,69.73715 C66.5586415,69.9660132 67.0016877,70.0661408 67.0016877,69.8658856 Z M85.3523733,52.858493 C85.4809996,52.8155812 85.5810423,52.6439338 85.5810423,52.4865904 C85.5810423,52.2005115 85.523875,52.0431681 84.7378254,50.3266945 C84.4948646,49.7974484 84.2947793,49.2968103 84.2947793,49.2252906 C84.2947793,49.1394669 84.237612,49.0822511 84.1518612,49.0822511 C84.0804021,49.0822511 84.0089431,48.9821235 84.0089431,48.853388 C84.0089431,48.7246524 83.9231922,48.4528775 83.8088577,48.2526222 C83.708815,48.038063 83.4515624,47.494513 83.2371852,47.0510907 C83.0370999,46.5933644 82.7083882,45.8781671 82.5225947,45.4776566 C82.3225093,45.0628421 82.122424,44.5765079 82.0795485,44.4048606 C82.0223813,44.2189093 81.9223386,44.0758698 81.8508796,44.0758698 C81.7794205,44.0758698 81.7222533,43.9757422 81.7222533,43.8613106 C81.7222533,43.7325751 81.4650006,43.0745935 81.136289,42.3880041 C80.0215277,39.9849411 79.8929014,39.6988621 79.4069798,38.6832819 L78.9353501,37.6390938 L77.5490444,37.6390938 C76.7915784,37.6390938 76.1341551,37.581878 76.0912796,37.5103583 C76.0484042,37.4531425 75.8197352,37.3530149 75.5910662,37.310103 C75.3481054,37.2528873 74.6620985,36.9095925 74.0475506,36.5376899 C72.2896578,35.45059 72.2181988,35.4219821 70.8747685,35.4219821 C69.8886335,35.4219821 69.5313383,35.4791979 69.0740003,35.7366689 C66.3871398,37.1956715 64.9436668,37.5675741 62.8427706,37.3530149 C61.6851339,37.2385833 61.6136748,37.2099754 59.4270277,36.1514834 C58.040722,35.4791979 57.8263448,35.4219821 56.6829999,35.3790702 C55.4967796,35.3218545 55.3681533,35.3504624 54.4677692,35.7938847 C53.9246804,36.0656597 53.1529226,36.4947781 52.7527518,36.7522491 C52.3382893,37.0097202 51.8094923,37.2528873 51.5665315,37.310103 C51.3235707,37.3530149 51.0949017,37.4531425 51.0520263,37.5103583 C51.0091509,37.581878 50.3517276,37.6390938 49.5942616,37.6390938 C48.1650804,37.6390938 47.4219063,37.4674465 46.5501058,36.9382004 C45.7926398,36.4804741 45.6783053,36.4375623 45.4496363,36.5949057 C45.1780919,36.7522491 45.1495083,36.795161 44.4063341,38.4258109 C43.2201137,41.0005213 42.819943,41.873062 42.5483986,42.402308 C42.4054805,42.7026909 42.2768542,43.0316817 42.2768542,43.1461133 C42.2768542,43.2605448 42.219687,43.3606725 42.1339361,43.3606725 C42.062477,43.3606725 41.991018,43.4321922 41.991018,43.5180159 C41.991018,43.6181435 41.762349,44.1759974 41.4765128,44.7767632 C41.1906765,45.3775289 40.8476731,46.1213342 40.704755,46.436021 C40.247417,47.4372973 39.261282,49.5399774 38.7039014,50.727205 C38.0178945,52.1575996 37.8892682,52.6439338 38.1465208,52.8155812 C38.3751897,52.9586207 84.995078,53.0015325 85.3523733,52.858493 Z M92.9270333,36.9095925 C94.8135524,36.5519939 95.5281429,36.3231307 97.1574094,35.4935018 C97.6719146,35.2217268 98.2292952,34.9499518 98.400797,34.8641282 C98.5865905,34.7783045 98.7295086,34.6638729 98.7295086,34.6066571 C98.7295086,34.5351374 98.8152595,34.4922256 98.9153022,34.4922256 C99.0153449,34.4922256 99.2725975,34.3062742 99.4869746,34.091715 C99.987188,33.576773 100.030063,32.6899283 99.5727255,32.3037217 C98.7723841,31.6171323 98.7580923,31.6171323 96.2284417,32.9617033 C94.6420506,33.8056361 93.4987057,34.106019 91.9408983,34.106019 C90.8547206,34.106019 90.1401301,33.9343716 89.1539951,33.4194296 C86.5671773,32.0891625 86.2956329,32.0176428 84.3233629,32.0176428 C83.3229361,32.0319467 82.6369292,32.0891625 82.5368865,32.1892901 C82.4511356,32.2751138 82.2653421,32.3466336 82.1081322,32.3466336 C81.8794632,32.3466336 80.9219118,32.8329677 79.7928587,33.5195572 C79.2926453,33.8199401 79.2640617,33.834244 78.4923039,34.0631072 C78.1635923,34.1632348 77.649087,34.2061466 77.348959,34.1632348 C76.2770732,34.0058914 75.7911516,33.8771558 75.5767744,33.7198124 C75.4624399,33.6339888 75.1766037,33.4480374 74.9336429,33.3193019 C73.5330454,32.5611928 73.0757074,32.3466336 72.804163,32.3466336 C72.6326613,32.3466336 72.4182841,32.2751138 72.3325333,32.1892901 C72.1038643,31.960427 69.3598365,31.9747309 68.645246,32.2035941 C68.3308261,32.3037217 67.7162782,32.5611928 67.2875239,32.775752 C66.8587696,32.9903112 66.1870544,33.3336059 65.7868837,33.5338611 C64.8722078,33.9915874 64.171909,34.2061466 63.6002366,34.2061466 C62.9571051,34.2061466 60.7847498,33.5910769 60.5703726,33.3336059 C60.4560381,33.2048704 58.6838535,32.4038493 58.1264729,32.217898 C57.4976332,32.0176428 54.6249791,32.0033388 54.4963528,32.2035941 C54.4534774,32.2894178 54.253392,32.3466336 54.0533067,32.3466336 C53.7103032,32.3466336 52.6955846,32.8043599 51.4950725,33.4909493 C50.9519836,33.8056361 50.3517276,33.9915874 49.2941335,34.1632348 C48.5509593,34.2776664 47.4076144,33.8914598 45.9498497,33.0189191 C44.6207112,32.217898 43.9204125,32.0319467 42.0910607,32.0319467 C41.0191748,32.0319467 40.3331679,32.0891625 40.2331252,32.1892901 C40.1473743,32.2751138 39.9758726,32.3466336 39.8472463,32.3466336 C39.7329118,32.3466336 38.8896949,32.7185362 37.9893108,33.1619585 L36.3457525,33.9772835 L34.6021516,33.9772835 C32.8728424,33.9772835 32.0867928,33.8199401 30.7433625,33.2477822 C30.5004017,33.1476546 30.2288573,33.0618309 30.1431065,33.0618309 C30.0573556,33.0618309 29.9858965,33.0046151 29.9858965,32.9187914 C29.9858965,32.8472717 29.9144375,32.775752 29.8429784,32.775752 C29.7572276,32.775752 29.4428077,32.6184085 29.1283879,32.4181533 C28.4566727,31.9890349 27.6277477,31.960427 27.1561179,32.3180257 C26.8988653,32.5182809 26.8131144,32.7328401 26.7988226,33.2620861 C26.770239,33.8771558 26.8131144,33.9915874 27.227577,34.3348821 C27.6420395,34.6781769 29.271306,35.5507176 29.9144375,35.7795807 C30.0716474,35.8367965 30.4289427,35.9655321 30.7004871,36.0656597 C30.9720315,36.1657873 31.4293695,36.2802189 31.7009139,36.3088268 C31.9724583,36.3517386 32.2868781,36.4518662 32.4012126,36.5519939 C32.6870489,36.780857 36.3600443,36.7522491 36.5887133,36.523386 C36.688756,36.4232583 36.9317168,36.3517386 37.146094,36.3517386 C37.3604711,36.3517386 37.7177664,36.2659149 37.9464354,36.1514834 C41.0334666,34.6209611 40.776214,34.7067848 42.2053951,34.7210887 C43.3344482,34.7496966 43.6059927,34.7926084 44.1490815,35.1072953 C44.4920849,35.3075505 45.1923837,35.6794531 45.7068889,35.9226202 C46.2213941,36.1657873 46.7501911,36.4375623 46.907401,36.509082 C47.593408,36.8809846 50.8233573,36.8952886 51.5093643,36.523386 C51.6665742,36.4375623 51.8809514,36.3374347 51.9952859,36.2945228 C52.1096203,36.251611 52.3097057,36.1514834 52.4240402,36.0942676 C52.5383747,36.0227478 52.7670437,35.9083163 52.9242536,35.8224926 C53.0814635,35.7509729 53.4101752,35.5793255 53.6388441,35.4648939 C54.782189,34.8498242 55.1966516,34.7496966 56.4829146,34.7210887 C57.8835121,34.7067848 57.6405513,34.635265 60.4989135,36.0084439 C60.8990843,36.1943952 61.3564222,36.3517386 61.527924,36.3517386 C61.6994257,36.3517386 61.8852192,36.4232583 61.9280947,36.4947781 C61.9852619,36.5806018 62.7141443,36.6378175 63.643112,36.6378175 C64.5720798,36.6378175 65.3009621,36.5806018 65.3581294,36.4947781 C65.4010048,36.4232583 65.5867984,36.3517386 65.7725919,36.3517386 C65.9440936,36.3517386 66.8016023,35.979836 67.659111,35.5364137 L69.2169184,34.7210887 L70.6032241,34.7353926 C71.975238,34.7353926 71.9895298,34.7496966 72.9184975,35.3361584 C73.4330027,35.6508452 73.9475079,35.9226202 74.0618424,35.9226202 C74.1618851,35.9226202 74.3333868,36.0227478 74.4334295,36.1371794 C74.5334722,36.251611 74.7192657,36.3517386 74.847892,36.3517386 C74.9765183,36.3517386 75.1623119,36.4232583 75.2337709,36.4947781 C75.4624399,36.7236412 77.2060409,36.8666807 78.4351367,36.7665531 C79.3641044,36.6807294 79.7213997,36.5662978 81.0648299,35.8654044 C81.9223386,35.4219821 82.7083882,34.9928637 82.8084309,34.90704 C82.9084736,34.8212163 83.5658969,34.7496966 84.2661957,34.7496966 C85.6525013,34.7353926 85.4238324,34.6638729 88.0106502,36.0084439 C89.0682442,36.5662978 90.6260517,37.0097202 91.5693112,37.052632 C91.8408556,37.052632 92.4554035,36.9954162 92.9270333,36.9095925 Z" id="Shape"></path>
            </g>
        </g>
    </g>
</svg>