<?xml version="1.0" encoding="UTF-8"?>
<svg width="512px" height="509px" viewBox="0 0 512 509" version="1.1" xmlns="http://www.w3.org/2000/svg" xmlns:xlink="http://www.w3.org/1999/xlink">
    <title>ifoto-ai_1714891658696</title>
    <g id="Page-1" stroke="none" stroke-width="1" fill="none" fill-rule="evenodd">
        <g id="ifoto-ai_1714891658696" fill="#7C3AED" fill-rule="nonzero">
            <g id="Group" transform="translate(256.000000, 254.126829) scale(-1, 1) rotate(-180.000000) translate(-256.000000, -254.126829) ">
                <path d="M235.834698,507.770174 C226.443065,507.366284 212.614894,505.404529 201.840444,502.923486 C199.650983,502.404198 195.502532,501.481019 192.621663,500.904032 C182.653856,498.711482 164.850085,492.653121 154.421339,487.864131 C152.116644,486.767856 150.042418,485.902376 149.869566,485.902376 C149.235775,485.902376 132.469117,477.247575 126.937849,474.074148 C121.63705,471.016118 105.273714,460.399561 103.833279,459.072492 C103.487575,458.783998 101.874288,457.456929 100.203384,456.187558 C87.9884994,446.724975 81.9962918,441.589793 75.0822061,434.72365 C69.6661723,429.357673 61.4845042,420.414379 58.2003135,416.260074 C52.669045,409.336233 49.0967674,404.778037 47.7715676,402.816282 C43.2197945,396.296332 34.4619526,382.967938 34.4619526,382.621746 C34.4619526,382.390951 33.1367529,379.909908 31.5234662,377.082673 C28.4121277,371.716696 21.7861289,358.215206 19.1357293,351.983749 C16.3124777,345.117606 9.80171366,326.65403 9.05268771,323.192109 C8.82221819,322.095834 8.188427,319.730189 7.66987057,317.999228 C6.80560986,315.114294 5.07708844,307.671165 3.40618439,299.824145 C0.755784877,286.899642 -0.281327977,272.705767 0.0643763079,251.761148 C0.410080593,228.56628 1.33195869,219.276793 5.30755796,199.428449 C7.43940105,188.869591 12.6249653,171.0407 14.8720432,166.540203 C15.1601301,165.905518 15.9667734,163.712968 16.6005646,161.693514 C17.2343558,159.674061 17.9833817,157.712306 18.2714686,157.366114 C18.5019382,157.019922 19.3085815,155.173564 20,153.269508 C24.2060589,141.902868 38.7832562,116.11156 48.1748893,103.360153 C62.3487649,84.2618909 80.8439442,65.0482317 96.9191934,52.873811 C107.175087,45.026791 121.060876,35.5642081 125.209327,33.5447545 C126.188823,33.083165 127.80211,32.1022876 128.839222,31.4099034 C130.682979,30.1982312 143.128333,23.9667742 149.408627,21.1395391 C154.882278,18.658496 168.998537,13.1771217 172.45558,12.1962443 C174.356953,11.6769562 179.945839,10.0036946 184.843316,8.56122765 C197.058201,4.98390972 210.71352,2.27207194 225.175483,0.598810329 C232.320038,-0.208971138 275.878778,-0.208971138 284.751855,0.656509005 C288.554602,0.945002386 294.489192,1.81048253 298.003852,2.44516797 C301.518513,3.07985341 306.070286,3.88763487 308.144511,4.23382693 C311.889641,4.86851237 324.334995,7.98424089 329.751029,9.71520117 C331.364316,10.2344893 334.706124,11.2153668 337.241289,11.9077509 C339.776453,12.6578337 343.175879,13.7541085 344.731548,14.3887939 C346.344835,15.0811781 350.089965,16.523645 353.086068,17.6776185 C358.386867,19.6970722 359.769685,20.2740589 369.218935,24.7745557 C374.577351,27.2555987 375.729699,27.8902842 379.01389,29.6789432 C385.294184,33.1408637 389.845957,35.7373042 392.20827,37.3528671 C393.53347,38.2760459 395.780548,39.6608141 397.105747,40.4685956 C399.928999,42.1418572 405.63312,46.2961619 411.798179,51.1428507 C414.218109,53.046907 416.810892,55.008662 417.617535,55.5279501 C419.806995,56.970417 431.676176,67.8177681 437.783618,73.9338278 C450.689911,86.91603 461.118657,99.6674374 469.588412,112.880434 C471.83549,116.400054 474.140185,119.919673 474.716359,120.785153 C475.35015,121.650633 475.811089,122.516113 475.811089,122.689209 C475.811089,122.862305 476.502498,124.073977 477.366759,125.458746 C479.210515,128.34368 481.111888,131.920997 485.433192,140.575799 C491.943956,153.6157 493.960564,158.462389 498.109016,170.867604 C498.915659,173.23325 500.010389,176.522074 500.586563,178.079938 C501.738911,181.195667 503.179345,186.907836 505.829745,198.851462 C507.961588,208.429442 508.941083,214.545502 509.747727,222.507919 C510.093431,226.027538 510.78484,232.720585 511.303396,237.451876 C512.513361,248.472323 512.340509,253.319012 509.22917,286.495751 C508.883466,290.303864 508.249675,295.092854 507.788736,297.170006 C507.385414,299.247159 506.521153,303.689957 505.829745,307.03648 C503.582667,318.518516 496.380494,342.001878 492.347278,350.887474 C490.503522,354.926381 488.314061,359.888467 487.507418,361.850222 C487.046479,362.946497 486.470305,364.273567 486.182218,364.735156 C485.894131,365.196745 484.453697,368.081679 482.955645,371.08201 C481.399975,374.082342 479.32575,377.948153 478.231019,379.679113 C477.136289,381.410073 476.099176,383.198732 475.868707,383.718021 C474.946829,386.025968 465.267109,400.508335 460.254397,407.028286 C457.892084,410.201713 455.356919,413.548236 454.665511,414.471415 C451.035616,419.548898 431.618558,439.570339 424.819707,445.340207 C414.275727,454.225803 397.509069,466.57332 390.134044,470.90072 C381.549054,475.920505 376.766812,478.516946 368.642761,482.440456 C363.39958,485.036896 358.617337,487.402542 358.041163,487.748734 C356.773581,488.441118 351.991338,490.287476 344.155374,493.114711 C341.332123,494.153287 338.336019,495.249562 337.529376,495.595754 C334.475654,496.865125 324.334995,499.807757 319.379901,500.846333 C291.954027,506.731598 288.324132,507.308585 275.014517,507.827873 C261.301581,508.40486 250.123809,508.40486 235.834698,507.770174 Z M352.048956,375.46711 C352.279425,375.120918 352.509895,372.120587 352.509895,368.889461 C352.509895,363.004196 352.452277,362.8311 350.838991,361.330934 L349.168086,359.77307 L353.71986,358.734494 C356.197407,358.157507 358.386867,357.465123 358.617337,357.176629 C359.42398,355.84956 360.576328,356.71504 360.576328,358.676795 C360.576328,360.292358 361.152502,361.215537 363.918136,364.042772 C368.585144,368.774063 369.795109,369.524146 372.387891,369.004858 C376.305873,368.312474 376.536342,363.811977 372.84883,360.292358 C368.873231,356.541944 365.934744,354.349394 364.897631,354.349394 C364.090988,354.349394 364.379075,353.887805 365.934744,352.387639 C368.124205,350.310487 371.7541,344.94451 372.272656,343.098152 C372.445508,342.290371 372.560743,342.463467 372.61836,343.732838 C372.733595,346.560073 375.729699,349.156513 378.898655,349.156513 C379.762916,349.156513 380.800029,349.445007 381.088115,349.7335 C381.43382,350.079692 382.989489,350.483583 384.602776,350.656679 C387.080323,351.002871 387.656497,350.829775 388.69361,349.7335 C389.327401,349.041116 389.961192,348.00254 390.134044,347.425553 C390.537366,345.925388 388.347905,342.867358 386.561767,342.463467 C385.755123,342.290371 384.257071,341.771083 383.219959,341.309494 C382.240463,340.847904 381.030498,340.501712 380.569559,340.501712 C380.051003,340.501712 379.474829,340.270917 379.301977,339.924725 C378.78342,339.059245 376.536342,339.232341 375.095908,340.270917 C374.346882,340.790205 373.655473,341.078699 373.540239,340.963301 C373.425004,340.847904 373.540239,339.001546 373.828325,336.808997 C374.17403,334.154858 374.116412,332.366199 373.713091,331.500719 L373.079299,330.11595 L348.476678,330.11595 C330.154351,330.11595 323.758822,330.289046 323.240265,330.808334 C322.26077,331.789212 322.376004,338.309162 323.3555,340.617109 C323.816439,341.655686 324.6807,343.617441 325.199256,345.002209 C325.77543,346.329278 326.409221,347.425553 326.697308,347.425553 C326.927777,347.425553 327.158247,347.771745 327.158247,348.175636 C327.158247,348.521828 328.425829,350.079692 329.923881,351.579858 L332.689516,354.233997 L331.076229,354.580189 C330.211968,354.753285 327.676803,356.599643 325.314491,358.849891 C321.626978,362.36951 321.166039,363.061894 321.166039,364.965951 C321.166039,367.793186 322.548857,369.062557 325.54496,369.004858 C327.734421,368.947159 328.310595,368.543269 331.882872,364.850553 C335.282298,361.388633 335.800854,360.523153 335.800854,358.734494 C335.800854,357.118931 336.031324,356.657341 336.837967,356.657341 C337.414141,356.657341 338.163167,356.945835 338.508871,357.292027 C339.085045,357.869014 340.755949,358.330603 345.711044,359.369179 L347.32433,359.657673 L345.595809,361.273235 C343.924905,362.8311 343.867287,363.004196 343.867287,368.600967 C343.924905,374.486232 344.155374,375.236315 346.748156,376.909577 C348.073356,377.775057 348.361443,377.775057 349.917112,376.967275 C350.896608,376.505686 351.818486,375.813302 352.048956,375.46711 Z M314.712893,350.021994 C315.577153,349.560404 316.787118,349.156513 317.363292,349.156513 C317.881849,349.156513 319.437518,348.348732 320.7051,347.425553 C322.721709,345.983086 323.12503,345.348401 323.12503,343.732838 C323.12503,342.174974 322.721709,341.48259 321.454126,340.559411 C320.532248,339.867027 319.495135,339.347739 319.091814,339.347739 C318.054701,339.347739 312.523432,341.194096 311.947258,341.713384 C311.601554,342.001878 310.967763,342.232672 310.449207,342.232672 C309.124007,342.232672 307.625955,344.021331 307.222633,346.098484 C306.934546,347.598649 307.165016,348.233335 308.317363,349.387308 C310.045885,351.118268 312.235345,351.291364 314.712893,350.021994 Z M392.035418,327.634907 C393.763939,325.557755 393.763939,324.346083 391.9778,322.26893 L390.537366,320.595669 L349.052852,320.422573 L307.51072,320.307175 L306.127903,321.807341 C304.687469,323.365205 304.168912,326.077043 305.263642,326.077043 C305.609347,326.077043 305.839816,326.423235 305.839816,326.827126 C305.839816,327.231017 306.531225,327.981099 307.453103,328.558086 C308.893537,329.423566 312.120111,329.538964 349.801878,329.365868 L390.652601,329.25047 L392.035418,327.634907 Z M263.894363,265.493433 C263.836746,239.932919 263.663893,218.699807 263.491041,218.353614 C263.318189,217.776628 254.906052,217.603532 224.080753,217.603532 C202.531852,217.603532 184.785699,217.834326 184.612847,218.065121 C184.439995,218.353614 185.361873,219.680684 186.571838,221.007754 C187.83942,222.392522 189.222237,223.950386 189.625559,224.469674 C190.374585,225.623648 194.580654,230.643432 195.560149,231.682009 C195.848236,232.028201 197.403905,233.874558 198.901957,235.778615 C200.457627,237.624972 202.013296,239.529029 202.359,239.875221 C202.704705,240.279111 203.799435,241.548482 204.77893,242.817853 C207.775034,246.45287 219.644214,260.589045 219.989919,260.877539 C220.162771,261.050635 221.199884,262.320006 222.294614,263.762473 C223.389344,265.20494 224.772161,266.878201 225.46357,267.512887 C226.097361,268.147572 227.710648,270.109327 229.035848,271.840287 C230.361047,273.571248 232.089569,275.6484 232.838595,276.456181 C233.530003,277.263963 235.316142,279.341115 236.756577,281.072076 C240.962645,286.264956 241.538819,286.95734 242.460697,287.938218 C242.921636,288.457506 244.82301,290.707754 246.609149,292.900304 C248.395287,295.150553 250.354278,297.4585 250.930452,298.093185 C251.506626,298.72787 252.947061,300.401132 254.099408,301.843599 C255.251756,303.286066 257.037895,305.363218 258.01739,306.459493 C258.996886,307.555768 260.322085,309.344427 261.071111,310.383003 C261.76252,311.421579 262.742015,312.171662 263.202954,312.056265 C263.95198,311.940867 264.067215,306.401794 263.894363,265.493433 Z M270.11704,281.822158 C270.11704,281.533665 270.923683,280.495089 271.845561,279.398814 C272.825057,278.360238 273.574083,277.263963 273.574083,277.090867 C273.574083,276.860072 274.035022,276.167688 274.611196,275.533003 C275.18737,274.956016 277.549682,271.840287 279.911995,268.66686 C282.274307,265.493433 284.348533,262.781595 284.521385,262.608499 C285.385646,261.858416 288.554602,257.473317 288.554602,257.127125 C288.554602,256.954029 288.900306,256.434741 289.303628,256.03085 C289.649332,255.626959 290.628828,254.472986 291.435471,253.43441 C292.242114,252.395833 293.970636,250.203284 295.353453,248.530022 C296.678653,246.856761 297.773383,245.183499 297.773383,244.837307 C297.773383,244.491115 298.003852,244.144923 298.234322,244.029525 C298.522409,243.971827 299.847609,242.298565 301.288043,240.394509 C302.67086,238.490452 304.111295,236.701793 304.456999,236.355601 C304.802703,236.067108 306.819312,233.297572 309.008772,230.29724 C311.198233,227.296909 313.157223,224.700469 313.330076,224.527373 C313.502928,224.354277 314.482423,223.142605 315.519536,221.873234 C318.976579,217.372737 320.359396,217.603532 293.22161,217.603532 C276.915891,217.603532 268.907075,217.776628 268.676606,218.238217 C268.158049,218.9883 267.524258,280.091198 267.985197,281.30287 C268.330901,282.226049 270.11704,282.62994 270.11704,281.822158 Z M344.097757,213.218432 C344.616313,213.045336 345.019635,212.352952 345.019635,211.718267 C345.019635,210.564293 344.789166,209.929608 341.62021,203.005767 C340.640714,200.870916 339.834071,198.851462 339.834071,198.562968 C339.834071,198.216776 339.603601,197.985982 339.257897,197.985982 C338.96981,197.985982 338.681723,197.582091 338.681723,197.062803 C338.681723,196.543515 338.336019,195.44724 337.87508,194.639459 C337.471758,193.773978 336.434645,191.581429 335.570385,189.79277 C334.763741,187.946412 333.438542,185.061478 332.689516,183.445915 C331.882872,181.772654 331.076229,179.810899 330.903377,179.118515 C330.672907,178.368432 330.269586,177.791445 329.981499,177.791445 C329.693412,177.791445 329.462942,177.387554 329.462942,176.925965 C329.462942,176.406677 328.425829,173.752538 327.10063,170.983001 C322.606474,161.289624 322.087918,160.13565 320.128927,156.039044 L318.227553,151.827041 L312.638667,151.827041 C309.584946,151.827041 306.934546,151.596246 306.761694,151.307753 C306.588842,151.076958 305.666964,150.673067 304.745086,150.499971 C303.76559,150.269176 300.999956,148.884408 298.522409,147.384243 C291.435471,142.999143 291.147384,142.883746 285.73135,142.883746 C281.755751,142.883746 280.315316,143.114541 278.47156,144.153117 C267.639493,150.038382 261.820137,151.538547 253.350382,150.673067 C248.683374,150.211478 248.395287,150.09608 239.579828,145.826378 C233.990942,143.114541 233.126682,142.883746 228.517291,142.71065 C223.735049,142.479855 223.216492,142.595253 219.586597,144.383912 C217.397137,145.480186 214.285798,147.211147 212.672511,148.249723 C211.001607,149.288299 208.869764,150.269176 207.890269,150.499971 C206.910773,150.673067 205.988895,151.076958 205.816043,151.307753 C205.643191,151.596246 202.992791,151.827041 199.93907,151.827041 C194.177332,151.827041 191.181228,151.134657 187.666568,148.999806 C184.612847,147.153448 184.151908,146.980352 183.23003,147.615037 C182.1353,148.249723 182.020065,148.422819 179.023961,155.000468 C174.241718,165.38623 172.628432,168.905849 171.533702,171.0407 C170.957528,172.252372 170.438971,173.579442 170.438971,174.041031 C170.438971,174.502621 170.208502,174.906511 169.862797,174.906511 C169.574711,174.906511 169.286624,175.195005 169.286624,175.541197 C169.286624,175.945087 168.364746,178.195336 167.212398,180.61868 C166.06005,183.042025 164.677233,186.042356 164.101059,187.311727 C162.257303,191.350634 158.281704,199.832339 156.034626,204.621329 C153.268992,210.391197 152.750435,212.352952 153.787548,213.045336 C154.709426,213.622323 342.657322,213.795419 344.097757,213.218432 Z M374.634969,148.884408 C382.240463,147.441941 385.121332,146.518763 391.689713,143.172239 C393.763939,142.075964 396.011018,140.97969 396.702426,140.633498 C397.451452,140.287305 398.027625,139.825716 398.027625,139.594921 C398.027625,139.306428 398.37333,139.133332 398.776651,139.133332 C399.179973,139.133332 400.217086,138.383249 401.081347,137.517769 C403.097955,135.440617 403.270807,131.863299 401.427051,130.305435 C398.200478,127.535898 398.14286,127.535898 387.944584,132.959574 C381.549054,136.363796 376.939664,137.575468 370.65937,137.575468 C366.280449,137.575468 363.39958,136.883084 359.42398,134.805931 C348.995234,129.439954 347.900504,129.151461 339.949306,129.151461 C335.916089,129.20916 333.150455,129.439954 332.747133,129.843845 C332.401429,130.190037 331.652403,130.478531 331.018612,130.478531 C330.096733,130.478531 326.236369,132.440286 321.684596,135.209822 C319.667988,136.421494 319.552753,136.479193 316.441414,137.402372 C315.116214,137.806262 313.041989,137.979358 311.832024,137.806262 C307.51072,137.171577 305.551729,136.652289 304.687469,136.017603 C304.226529,135.671411 303.074182,134.921329 302.094686,134.402041 C296.448183,131.344011 294.604427,130.478531 293.509697,130.478531 C292.818288,130.478531 291.954027,130.190037 291.608323,129.843845 C290.686445,128.920666 279.623908,128.978365 276.743039,129.901544 C275.475456,130.305435 272.997909,131.344011 271.269388,132.209491 C269.540866,133.074971 266.832849,134.459739 265.219563,135.267521 C261.53205,137.113878 258.708799,137.979358 256.404103,137.979358 C253.811321,137.979358 245.053479,135.498315 244.189219,134.459739 C243.72828,133.940451 236.583724,130.709325 234.336647,129.959242 C231.801482,129.151461 220.220388,129.093762 219.701832,129.901544 C219.52898,130.247736 218.722336,130.478531 217.915693,130.478531 C216.532876,130.478531 212.442042,132.324888 207.602182,135.094425 C205.412721,136.363796 202.992791,137.113878 198.729105,137.806262 C195.733001,138.267852 191.123611,136.709988 185.246638,133.190368 C179.888222,129.959242 177.06497,129.20916 169.689945,129.20916 C165.368642,129.20916 162.603007,129.439954 162.199686,129.843845 C161.853982,130.190037 161.162573,130.478531 160.644017,130.478531 C160.183078,130.478531 156.783652,131.978696 153.153757,133.767355 L146.527758,137.05618 L139.498438,137.05618 C132.526735,137.05618 129.357779,136.421494 123.941745,134.113547 C122.96225,133.709656 121.867519,133.363464 121.521815,133.363464 C121.176111,133.363464 120.888024,133.13267 120.888024,132.786478 C120.888024,132.497984 120.599937,132.209491 120.31185,132.209491 C119.966146,132.209491 118.698563,131.574805 117.430981,130.767024 C114.722964,129.036064 111.381156,128.920666 109.479782,130.363133 C108.44267,131.170915 108.096965,132.036395 108.039348,134.171246 C107.924113,136.652289 108.096965,137.113878 109.767869,138.498647 C111.438773,139.883415 118.007155,143.403034 120.599937,144.326213 C121.233728,144.557008 122.674163,145.076296 123.768893,145.480186 C124.863623,145.884077 126.707379,146.345667 127.80211,146.461064 C128.89684,146.63416 130.164422,147.038051 130.625361,147.441941 C131.777709,148.36512 146.585376,148.249723 147.507254,147.326544 C147.910575,146.922653 148.890071,146.63416 149.754332,146.63416 C150.618592,146.63416 152.059027,146.287968 152.980905,145.826378 C165.426259,139.65262 164.389146,139.998812 170.150884,140.056511 C174.702657,140.171908 175.797388,140.345004 177.986848,141.614375 C179.369665,142.422157 182.192917,143.922322 184.267143,144.9032 C186.341368,145.884077 188.473211,146.980352 189.107003,147.268845 C191.872637,148.769011 204.894165,148.82671 207.659799,147.326544 C208.29359,146.980352 209.157851,146.576461 209.61879,146.403365 C210.079729,146.230269 210.886373,145.826378 211.347312,145.595584 C211.808251,145.30709 212.730129,144.845501 213.36392,144.499309 C213.997711,144.210815 215.322911,143.518431 216.244789,143.056842 C220.854179,140.575799 222.525084,140.171908 227.710648,140.056511 C233.357151,139.998812 232.377656,139.710319 243.901132,145.249392 C245.514418,145.999474 247.358175,146.63416 248.049583,146.63416 C248.740992,146.63416 249.490018,146.922653 249.66287,147.211147 C249.893339,147.557339 252.831826,147.788133 256.576956,147.788133 C260.322085,147.788133 263.260572,147.557339 263.491041,147.211147 C263.663893,146.922653 264.412919,146.63416 265.161945,146.63416 C265.853354,146.63416 269.310397,145.133994 272.76744,143.345335 L279.047734,140.056511 L284.63662,140.114209 C290.167889,140.114209 290.225506,140.171908 293.970636,142.537554 C296.044861,143.806925 298.119087,144.9032 298.580026,144.9032 C298.983348,144.9032 299.674756,145.30709 300.078078,145.76868 C300.4814,146.230269 301.230426,146.63416 301.748982,146.63416 C302.267539,146.63416 303.016564,146.922653 303.304651,147.211147 C304.226529,148.134325 311.25585,148.711312 316.210945,148.307421 C319.956074,147.961229 321.396509,147.49964 326.812543,144.672405 C330.269586,142.883746 333.438542,141.152786 333.841863,140.806594 C334.245185,140.460402 336.895584,140.171908 339.718836,140.171908 C345.307722,140.114209 344.385844,139.825716 354.81459,145.249392 C359.078276,147.49964 365.35857,149.288299 369.161318,149.461395 C370.256048,149.461395 372.733595,149.2306 374.634969,148.884408 Z" id="Shape"></path>
            </g>
        </g>
    </g>
</svg>