<?xml version="1.0" encoding="UTF-8"?>
<svg width="256px" height="256px" viewBox="0 0 256 256" version="1.1" xmlns="http://www.w3.org/2000/svg" xmlns:xlink="http://www.w3.org/1999/xlink">
    <title>t-icon-rocket</title>
    <g id="Page-1" stroke="none" stroke-width="1" fill="none" fill-rule="evenodd">
        <g id="t-icon-rocket" fill-rule="nonzero">
            <path d="M0,128 C0,198.692448 57.307552,256 128,256 C198.692448,256 256,198.692448 256,128 C256,57.307552 198.692448,0 128,0 C57.307552,0 0,57.307552 0,128 Z" id="Path" fill="#7C3AED"></path>
            <path d="M178.6265,80.1485 C178.304389,78.7711016 177.228898,77.6956109 175.8515,77.3735 C155.5455,72.709 133.3965,78.25925 117.6165,94.039 C115.392743,96.2660524 113.341421,98.6588568 111.48025,101.19675 C110.95275,101.9135 99.84,110.08 100.242,127.92325 C100.1575,128.41975 108.334,138.78275 112.773,143.227 C117.21725,147.666 127.5775,155.84 128.07425,155.758612 C142.08,154.88 154.08375,145.0495 154.80075,144.51975 C157.338589,142.658518 159.731312,140.607111 161.95825,138.38325 C177.74075,122.59825 183.29075,100.4545 178.6265,80.14825 L178.6265,80.1485 Z M135.337,120.663 C132.087773,117.485894 130.796568,112.807773 131.956109,108.413807 C133.11565,104.01984 136.547029,100.58798 140.940834,99.4278242 C145.334638,98.267668 150.012939,99.5582178 153.1905,102.807 C158.121298,107.737798 158.121298,115.732202 153.1905,120.663 C148.259702,125.593798 140.265298,125.593798 135.3345,120.663 L135.337,120.663 Z" id="Shape" fill="#FFFFFF"></path>
            <path d="M128.07425,155.758 C128.06925,161.58975 127.11925,167.25 125.1815,172.48775 C123.95775,175.80525 127.5495,178.89525 130.59325,177.093 C134.179443,174.964521 137.484562,172.394722 140.43125,169.44375 C147.02325,162.85175 151.32925,154.90825 153.37225,146.665 C153.581627,145.80499 154.087424,145.046294 154.80075,144.52225 C138.24,156.16 127.5775,155.84 128.07425,155.76075 L128.07425,155.758 Z M111.48025,101.19675 C110.95275,101.9135 110.20025,102.41275 109.33525,102.62775 C101.09175,104.66825 93.14825,108.97675 86.5535,115.56875 C83.6035609,118.514736 81.034687,121.819013 78.907,125.40425 C77.102,128.4505 80.192,132.03975 83.51225,130.8135 C88.75,128.878 94.40775,127.9285 100.23925,127.92325 C100.1575,128.41975 99.84,113.92 111.47775,101.19675 L111.48025,101.19675 Z M75.776,180.224 C94.6635,172.485 105.385,167.342 107.93475,164.78975 C111.762,160.9625 111.11925,154.11725 106.501,149.5015 C101.883,144.88075 95.035,144.238 91.21025,148.06525 C88.65775,150.61525 83.51225,161.33625 75.776,180.224 L75.776,180.224 Z" id="Shape" fill="#FFFFFF"></path>
        </g>
    </g>
</svg>