<?xml version="1.0" encoding="UTF-8"?>
<svg width="512px" height="512px" viewBox="0 0 512 512" version="1.1" xmlns="http://www.w3.org/2000/svg" xmlns:xlink="http://www.w3.org/1999/xlink">
    <title>logo_rocket_man_violet</title>
    <g id="Page-1" stroke="none" stroke-width="1" fill="none" fill-rule="evenodd">
        <g id="logo_rocket_man_violet" transform="translate(-0.000000, 0.000000)" fill="#7C3AED" fill-rule="nonzero">
            <g id="Group" transform="translate(256.000000, 256.000000) scale(-1, 1) rotate(-180.000000) translate(-256.000000, -256.000000) translate(0.000000, 0.000000)">
                <path d="M0,256 L0,64 C-4.32866401e-15,28.653776 28.653776,4.32866401e-15 64,0 L256,0 L448,0 C483.346224,-6.49299601e-15 512,28.653776 512,64 L512,256 L512,448 C512,483.346224 483.346224,512 448,512 L256,512 L64,512 C28.653776,512 2.164332e-15,483.346224 0,448 L0,256 Z M261,444.4 C277.1,436.6 286.5,418.9 284,400.9 C279.7,370.8 242.3,356.1 218.4,375.1 C212.6,379.7 207.4,387.2 205,394.6 C201.9,403.7 202.5,416 206.2,424.2 C210.9,434.4 219.7,442.1 231.5,446.2 C235.2,447.6 238.9,448 245.5,447.8 C253.2,447.5 255.4,447 261,444.4 Z M158.6,405.1 C165.6,401.9 167.3,398.5 174.6,373.2 L175.209869,371.088215 C178.81684,358.598404 190.249784,350 203.25,350 L225.2,350 L255.075137,350 C264.315413,350 273.446115,347.999112 281.839589,344.134879 L315.8,328.5 L315.8,328.5 C341.5,316.7 364,306.1 365.8,305 C372.1,301.2 375.9,291.7 374.1,284.5 C373.5,282.2 372.8,279.5 372.4,278.6 C371.9,277.3 372.6,277 377,277 C391.1,277 421,270.6 440,263.5 C455,258 472,250 472,248.6 C472,246.8 456.9,224.4 449.3,215 C421.4,180.3 382.1,153.7 343.9,143.6 C319.7,137.1 266.3,127.9 216,121.4 L169.093887,115.362579 C166.857827,115.07477 164.631024,115.957884 163.2,117.7 L163.2,117.7 L163.2,117.7 C152.1,131 138.4,177.5 140.5,194.5 C140.936212,197.678118 142.960092,200.415653 145.870667,201.764456 L165.8,211 L165.8,211 C179.4,217.2 191.9,223 193.5,223.7 C196.4,225.1 196.6,225 202.1,219.7 C210.5,211.5 215.8,209.4 234.7,206.6 C243.7,205.2 251.3,203.9 251.8,203.6 C252.3,203.3 251.6,199.8 250.2,195.8 C244.1,177.6 250.8,158.3 266.7,148.2 C277.8,141.2 294.2,140 305.1,145.5 C312.5,149.2 318.2,154 321.8,159.7 C324.9,164.6 348.3,218.2 351.4,227.8 C355.1,238.8 353.1,253 346.7,262.2 C340.9,270.5 335.3,274 306.4,287.6 C291.2,294.7 278.4,300.7 277.9,300.8 C277.3,301 277.1,294.4 277.2,284.8 C277.376105,275.23165 284.068744,267.022818 293.40554,264.923156 L298.4,263.8 L298.4,263.8 C309.8,261.3 320.5,258.6 322.1,257.9 C328.9,255.1 334.9,244.1 333.7,236.6 C332.9,231.5 307.6,173.1 304.6,169.3 C298.9,162.2 287.2,159.6 279.2,163.8 C271.7,167.6 267.2,178.3 269.2,187.3 C269.7,189.6 272.8,197.7 276.2,205.3 C279.5,212.9 282.1,219.2 281.9,219.4 C281.7,219.6 268.5,221.6 252.5,224 C219.1,228.9 217.6,229.4 213.4,238.3 C211,243.5 211,243.7 211,276.3 L211,284.5 C211,298.030976 200.030976,309 186.5,309 L186.5,309 L186.5,309 C166.6,309 161.2,309.3 158.2,310.6 C154.3,312.2 149.5,316.2 147.9,319.3 C145.8,323.1 129,383.6 129,387.2 C129,391.8 131.2,397.5 134.3,400.9 C139.7,406.7 150.8,408.7 158.6,405.1 Z M176.5,250.4 C187.9,244.2 191.9,241.5 190.9,240.7 C189.9,239.9 127,211 126.2,211 C124.5,211 109.5,222.1 108.3,224.2 C106.6,227.4 106.7,230.4 108.8,233 C111,235.7 157.5,256.8 161.5,256.9 C163.4,257 168.8,254.6 176.5,250.4 Z M128.2,172.1 C130.3,171.3 130.7,170.2 131.8,162.6 C133.4,151.3 137.2,138.3 141.7,128.8 L143.976852,123.930067 C144.756571,122.262334 144.314298,120.278582 142.9,119.1 L142.9,119.1 L142.9,119.1 C134.8,112.4 121.4,107.6 110.5,107.6 C97.7,107.7 85.9,112.1 72.5,122 C69.325459,124.351512 68.1560995,128.560241 69.6625892,132.212337 L70.4,134 L70.4,134 C72.3,138.4 75.1,144.2 76.6,146.8 C80.7,153.8 91.6,164.1 98.4,167.4 C108,172 122.5,174.3 128.2,172.1 Z M231,106.3 C230.9,104.1 216,79.3 213.8,77.7 C211.9,76.3 205.4,75 187.4,72.4 C158.7,68.4 156.4,68.3 153.3,71.2 C150.1,74.2 150.4,78 154.7,88.6 C156.987171,94.2252041 162.119056,98.1887902 168.139682,98.9800726 L175.9,100 L175.9,100 C185.6,101.2 201.2,103.2 210.5,104.5 C230.9,107.2 231,107.2 231,106.3 Z" id="Shape"></path>
            </g>
        </g>
    </g>
</svg>