<?xml version="1.0" standalone="no"?>
<!DOCTYPE svg PUBLIC "-//W3C//DTD SVG 20010904//EN"
 "http://www.w3.org/TR/2001/REC-SVG-20010904/DTD/svg10.dtd">
<svg version="1.0" xmlns="http://www.w3.org/2000/svg"
 width="512.000000pt" height="512.000000pt" viewBox="0 0 512.000000 512.000000"
 preserveAspectRatio="xMidYMid meet">

<g transform="translate(0.000000,512.000000) scale(0.100000,-0.100000)"
fill="#000000" stroke="none">
<path d="M0 2560 l0 -2560 2560 0 2560 0 0 2560 0 2560 -2560 0 -2560 0 0
-2560z m2610 1884 c161 -78 255 -255 230 -435 -43 -301 -417 -448 -656 -258
-58 46 -110 121 -134 195 -31 91 -25 214 12 296 47 102 135 179 253 220 37 14
74 18 140 16 77 -3 99 -8 155 -34z m-1024 -393 c70 -32 87 -66 160 -319 l67
-232 439 0 439 0 467 -215 c257 -118 482 -224 500 -235 63 -38 101 -133 83
-205 -6 -23 -13 -50 -17 -59 -5 -13 2 -16 46 -16 141 0 440 -64 630 -135 150
-55 320 -135 320 -149 0 -18 -151 -242 -227 -336 -279 -347 -672 -613 -1054
-714 -242 -65 -776 -157 -1279 -222 l-505 -65 -23 28 c-111 133 -248 598 -227
768 l7 51 246 114 c136 62 261 120 277 127 29 14 31 13 86 -40 84 -82 137
-103 326 -131 90 -14 166 -27 171 -30 5 -3 -2 -38 -16 -78 -61 -182 6 -375
165 -476 111 -70 275 -82 384 -27 74 37 131 85 167 142 31 49 265 585 296 681
37 110 17 252 -47 344 -58 83 -114 118 -403 254 -152 71 -280 131 -285 132 -6
2 -8 -64 -7 -160 l3 -163 209 -47 c114 -25 221 -52 237 -59 68 -28 128 -138
116 -213 -8 -51 -261 -635 -291 -673 -57 -71 -174 -97 -254 -55 -75 38 -120
145 -100 235 5 23 36 104 70 180 33 76 59 139 57 141 -2 2 -134 22 -294 46
-334 49 -349 54 -391 143 -24 52 -24 54 -24 380 l0 327 -245 0 c-199 0 -253 3
-283 16 -39 16 -87 56 -103 87 -21 38 -189 643 -189 679 0 46 22 103 53 137
54 58 165 78 243 42z m179 -1547 c114 -62 154 -89 144 -97 -10 -8 -639 -297
-647 -297 -17 0 -167 111 -179 132 -17 32 -16 62 5 88 22 27 487 238 527 239
19 1 73 -23 150 -65z m-483 -783 c21 -8 25 -19 36 -95 16 -113 54 -243 99
-338 l36 -77 -24 -20 c-81 -67 -215 -115 -324 -115 -128 1 -246 45 -380 144
l-54 40 33 80 c19 44 47 102 62 128 41 70 150 173 218 206 96 46 241 69 298
47z m1028 -658 c-1 -22 -150 -270 -172 -286 -19 -14 -84 -27 -264 -53 -287
-40 -310 -41 -341 -12 -32 30 -29 68 14 174 l37 91 175 23 c97 12 253 32 346
45 204 27 205 27 205 18z"/>
</g>
</svg>
